<?xml version="1.0" standalone="yes"?>

<svg version="1.1" viewBox="0.0 0.0 821.0 665.0" fill="none" stroke="none" stroke-linecap="square" stroke-miterlimit="10" clip-path="url(#p.0)" xmlns="http://www.w3.org/2000/svg" xmlns:xlink="http://www.w3.org/1999/xlink"><clipPath id="p.0"><path d="M0 0L821.0 0L821.0 665.0L0 665.0L0 0Z" clip-rule="nonzero"></path></clipPath><path d="M117.563324 438.26852L117.563324 438.26852C117.563324 431.49326 123.05576 426.00082 129.83104 426.00082L129.83104 426.00082C133.08464 426.00082 136.20499 427.2933 138.50562 429.59396C140.80626 431.8946 142.09875 435.01492 142.09875 438.26852L142.09875 438.26852C142.09875 445.04382 136.60631 450.53625 129.83104 450.53625L129.83104 450.53625C123.05576 450.53625 117.563324 445.04382 117.563324 438.26852Z" fill-rule="nonzero" fill="#cfe2f3" stroke="#b7b7b7" stroke-width="2.0" stroke-linejoin="round" stroke-linecap="butt"></path><path d="M224.56332 367.7331L224.56332 367.7331C224.56332 360.95782 230.05577 355.4654 236.83104 355.4654L236.83104 355.4654C240.08464 355.4654 243.20499 356.75787 245.50562 359.05853C247.80626 361.35916 249.09875 364.4795 249.09875 367.7331L249.09875 367.7331C249.09875 374.50836 243.60631 380.00082 236.83104 380.00082L236.83104 380.00082C230.05577 380.00082 224.56332 374.50836 224.56332 367.7331Z" fill-rule="nonzero" fill="#cfe2f3" stroke="#b7b7b7" stroke-width="2.0" stroke-linejoin="round" stroke-linecap="butt"></path><path d="M277.82315 487.04282L277.82315 487.04282C277.82315 480.26755 283.3156 474.7751 290.09088 474.7751L290.09088 474.7751C293.34448 474.7751 296.4648 476.0676 298.76547 478.36823C301.0661 480.66888 302.35858 483.7892 302.35858 487.04282L302.35858 487.04282C302.35858 493.81808 296.86615 499.31052 290.09088 499.31052L290.09088 499.31052C283.3156 499.31052 277.82315 493.81808 277.82315 487.04282Z" fill-rule="nonzero" fill="#cfe2f3" stroke="#b7b7b7" stroke-width="2.0" stroke-linejoin="round" stroke-linecap="butt"></path><path d="M170.0279 244.26854L170.0279 244.26854C170.0279 237.49327 175.52032 232.00082 182.29561 232.00082L182.29561 232.00082C185.54921 232.00082 188.66954 233.2933 190.97018 235.59395C193.27083 237.89459 194.56332 241.01494 194.56332 244.26854L194.56332 244.26854C194.56332 251.04381 189.07088 256.53625 182.29561 256.53625L182.29561 256.53625C175.52032 256.53625 170.0279 251.04381 170.0279 244.26854Z" fill-rule="nonzero" fill="#cfe2f3" stroke="#b7b7b7" stroke-width="2.0" stroke-linejoin="round" stroke-linecap="butt"></path><path d="M347.15646 279.44968L347.15646 279.44968C347.15646 272.6744 352.6489 267.18198 359.42416 267.18198L359.42416 267.18198C362.67776 267.18198 365.79813 268.47446 368.09875 270.7751C370.3994 273.07574 371.6919 276.19608 371.6919 279.44968L371.6919 279.44968C371.6919 286.22495 366.19943 291.7174 359.42416 291.7174L359.42416 291.7174C352.6489 291.7174 347.15646 286.22495 347.15646 279.44968Z" fill-rule="nonzero" fill="#cfe2f3" stroke="#b7b7b7" stroke-width="2.0" stroke-linejoin="round" stroke-linecap="butt"></path><path d="M380.4636 446.12024L380.4636 446.12024C380.4636 439.34497 385.95602 433.85254 392.7313 433.85254L392.7313 433.85254C395.9849 433.85254 399.10526 435.14502 401.40588 437.44565C403.70654 439.7463 404.99902 442.86664 404.99902 446.12024L404.99902 446.12024C404.99902 452.8955 399.50656 458.38797 392.7313 458.38797L392.7313 458.38797C385.95602 458.38797 380.4636 452.8955 380.4636 446.12024Z" fill-rule="nonzero" fill="#cfe2f3" stroke="#b7b7b7" stroke-width="2.0" stroke-linejoin="round" stroke-linecap="butt"></path><path d="M464.56332 207.4654L464.56332 207.4654C464.56332 200.69011 470.05576 195.19768 476.83102 195.19768L476.83102 195.19768C480.08463 195.19768 483.205 196.49016 485.5056 198.7908C487.80627 201.09145 489.09875 204.21179 489.09875 207.4654L489.09875 207.4654C489.09875 214.24066 483.60632 219.73311 476.83102 219.73311L476.83102 219.73311C470.05576 219.73311 464.56332 214.24066 464.56332 207.4654Z" fill-rule="nonzero" fill="#cfe2f3" stroke="#b7b7b7" stroke-width="2.0" stroke-linejoin="round" stroke-linecap="butt"></path><path d="M474.56332 399.7331L474.56332 399.7331C474.56332 392.95782 480.05576 387.4654 486.83102 387.4654L486.83102 387.4654C490.08463 387.4654 493.205 388.75787 495.5056 391.05853C497.80627 393.35916 499.09875 396.4795 499.09875 399.7331L499.09875 399.7331C499.09875 406.50836 493.60632 412.00082 486.83102 412.00082L486.83102 412.00082C480.05576 412.00082 474.56332 406.50836 474.56332 399.7331Z" fill-rule="nonzero" fill="#cfe2f3" stroke="#b7b7b7" stroke-width="2.0" stroke-linejoin="round" stroke-linecap="butt"></path><path d="M561.5633 462.5074L561.5633 462.5074C561.5633 455.73212 567.0558 450.23965 573.83105 450.23965L573.83105 450.23965C577.08466 450.23965 580.20496 451.53217 582.5056 453.8328C584.8063 456.13345 586.09875 459.25378 586.09875 462.5074L586.09875 462.5074C586.09875 469.28265 580.6063 474.7751 573.83105 474.7751L573.83105 474.7751C567.0558 474.7751 561.5633 469.28265 561.5633 462.5074Z" fill-rule="nonzero" fill="#cfe2f3" stroke="#b7b7b7" stroke-width="2.0" stroke-linejoin="round" stroke-linecap="butt"></path><path d="M612.5633 199.50739L612.5633 199.50739C612.5633 192.73212 618.0558 187.23967 624.83105 187.23967L624.83105 187.23967C628.08466 187.23967 631.20496 188.53215 633.5056 190.8328C635.8063 193.13344 637.09875 196.25378 637.09875 199.50739L637.09875 199.50739C637.09875 206.28265 631.6063 211.7751 624.83105 211.7751L624.83105 211.7751C618.0558 211.7751 612.5633 206.28265 612.5633 199.50739Z" fill-rule="nonzero" fill="#cfe2f3" stroke="#b7b7b7" stroke-width="2.0" stroke-linejoin="round" stroke-linecap="butt"></path><path d="M688.5633 323.5914L688.5633 323.5914C688.5633 316.81613 694.0558 311.32367 700.83105 311.32367L700.83105 311.32367C704.08466 311.32367 707.20496 312.61615 709.5056 314.9168C711.8063 317.21744 713.09875 320.3378 713.09875 323.5914L713.09875 323.5914C713.09875 330.36667 707.6063 335.8591 700.83105 335.8591L700.83105 335.8591C694.0558 335.8591 688.5633 330.36667 688.5633 323.5914Z" fill-rule="nonzero" fill="#cfe2f3" stroke="#b7b7b7" stroke-width="2.0" stroke-linejoin="round" stroke-linecap="butt"></path><path d="M138.50562 429.59396L228.15645 376.40768" fill-rule="nonzero" stroke="#e6b8af" stroke-width="12.0" stroke-linejoin="round" stroke-linecap="butt"></path><path d="M190.97018 252.94312L236.83104 355.4654" fill-rule="nonzero" stroke="#e6b8af" stroke-width="12.0" stroke-linejoin="round" stroke-linecap="butt"></path><path d="M245.50562 359.05853L350.74957 288.12427" fill-rule="nonzero" stroke="#e6b8af" stroke-width="12.0" stroke-linejoin="round" stroke-linecap="butt"></path><path d="M245.50562 376.40768L290.09088 474.7751" fill-rule="nonzero" stroke="#e6b8af" stroke-width="12.0" stroke-linejoin="round" stroke-linecap="butt"></path><path d="M371.6919 279.44968L464.56332 207.4654" fill-rule="nonzero" stroke="#e6b8af" stroke-width="12.0" stroke-linejoin="round" stroke-linecap="butt"></path><path d="M485.5056 198.7908L616.15643 208.18196" fill-rule="nonzero" stroke="#e6b8af" stroke-width="12.0" stroke-linejoin="round" stroke-linecap="butt"></path><path d="M637.09875 199.50739L688.5633 323.5914" fill-rule="nonzero" stroke="#e6b8af" stroke-width="12.0" stroke-linejoin="round" stroke-linecap="butt"></path><path d="M368.09875 288.12427L384.0567 437.44565" fill-rule="nonzero" stroke="#e6b8af" stroke-width="12.0" stroke-linejoin="round" stroke-linecap="butt"></path><path d="M476.83102 219.73311L486.83102 387.4654" fill-rule="nonzero" stroke="#e6b8af" stroke-width="12.0" stroke-linejoin="round" stroke-linecap="butt"></path><path d="M495.5056 408.40768L565.15643 453.8328" fill-rule="nonzero" stroke="#e6b8af" stroke-width="12.0" stroke-linejoin="round" stroke-linecap="butt"></path><path d="M672.2116 289.7331L717.188 289.7331L717.188 337.7331L672.2116 337.7331Z" fill-rule="nonzero" fill="#4a86e8" stroke="#efefef" stroke-width="1.0" stroke-linejoin="round" stroke-linecap="butt"></path><path d="M653.20374 298.5074L694.19586 250.50737L735.188 298.5074Z" fill-rule="nonzero" fill="#4a86e8" stroke="#efefef" stroke-width="1.0" stroke-linejoin="round" stroke-linecap="butt"></path><path d="M614.5738 171.73311L659.5502 171.73311L659.5502 219.73311L614.5738 219.73311Z" fill-rule="nonzero" fill="#4a86e8" stroke="#efefef" stroke-width="1.0" stroke-linejoin="round" stroke-linecap="butt"></path><path d="M595.5659 180.50739L636.55804 132.50739L677.5502 180.50739Z" fill-rule="nonzero" fill="#4a86e8" stroke="#efefef" stroke-width="1.0" stroke-linejoin="round" stroke-linecap="butt"></path><path d="M459.66306 171.73311L504.63943 171.73311L504.63943 219.73311L459.66306 219.73311Z" fill-rule="nonzero" fill="#4a86e8" stroke="#efefef" stroke-width="1.0" stroke-linejoin="round" stroke-linecap="butt"></path><path d="M440.65518 180.50739L481.6473 132.50739L522.63947 180.50739Z" fill-rule="nonzero" fill="#4a86e8" stroke="#efefef" stroke-width="1.0" stroke-linejoin="round" stroke-linecap="butt"></path><path d="M559.57513 429.20425L604.5515 429.20425L604.5515 477.20425L559.57513 477.20425Z" fill-rule="nonzero" fill="#4a86e8" stroke="#efefef" stroke-width="1.0" stroke-linejoin="round" stroke-linecap="butt"></path><path d="M540.56726 437.97855L581.5594 389.97855L622.5515 437.97855Z" fill-rule="nonzero" fill="#4a86e8" stroke="#efefef" stroke-width="1.0" stroke-linejoin="round" stroke-linecap="butt"></path><path d="M455.07382 370.7331L500.0502 370.7331L500.0502 418.7331L455.07382 418.7331Z" fill-rule="nonzero" fill="#4a86e8" stroke="#efefef" stroke-width="1.0" stroke-linejoin="round" stroke-linecap="butt"></path><path d="M436.06595 379.5074L477.05807 331.5074L518.0502 379.5074Z" fill-rule="nonzero" fill="#4a86e8" stroke="#efefef" stroke-width="1.0" stroke-linejoin="round" stroke-linecap="butt"></path><path d="M378.28903 441.7331L423.2654 441.7331L423.2654 489.7331L378.28903 489.7331Z" fill-rule="nonzero" fill="#4a86e8" stroke="#efefef" stroke-width="1.0" stroke-linejoin="round" stroke-linecap="butt"></path><path d="M359.28116 450.5074L400.2733 402.5074L441.2654 450.5074Z" fill-rule="nonzero" fill="#4a86e8" stroke="#efefef" stroke-width="1.0" stroke-linejoin="round" stroke-linecap="butt"></path><path d="M336.57382 258.95883L381.5502 258.95883L381.5502 306.95883L336.57382 306.95883Z" fill-rule="nonzero" fill="#4a86e8" stroke="#efefef" stroke-width="1.0" stroke-linejoin="round" stroke-linecap="butt"></path><path d="M317.56595 267.7331L358.55807 219.7331L399.5502 267.7331Z" fill-rule="nonzero" fill="#4a86e8" stroke="#efefef" stroke-width="1.0" stroke-linejoin="round" stroke-linecap="butt"></path><path d="M269.02182 480.95883L313.9982 480.95883L313.9982 528.9588L269.02182 528.9588Z" fill-rule="nonzero" fill="#4a86e8" stroke="#efefef" stroke-width="1.0" stroke-linejoin="round" stroke-linecap="butt"></path><path d="M250.01395 489.7331L291.00607 441.7331L331.9982 489.7331Z" fill-rule="nonzero" fill="#4a86e8" stroke="#efefef" stroke-width="1.0" stroke-linejoin="round" stroke-linecap="butt"></path><path d="M215.39272 361.7331L260.3691 361.7331L260.3691 409.7331L215.39272 409.7331Z" fill-rule="nonzero" fill="#4a86e8" stroke="#efefef" stroke-width="1.0" stroke-linejoin="round" stroke-linecap="butt"></path><path d="M196.38484 370.5074L237.37697 322.5074L278.3691 370.5074Z" fill-rule="nonzero" fill="#4a86e8" stroke="#efefef" stroke-width="1.0" stroke-linejoin="round" stroke-linecap="butt"></path><path d="M166.07382 218.50739L211.0502 218.50739L211.0502 266.5074L166.07382 266.5074Z" fill-rule="nonzero" fill="#4a86e8" stroke="#efefef" stroke-width="1.0" stroke-linejoin="round" stroke-linecap="butt"></path><path d="M147.06595 227.28166L188.05807 179.28166L229.0502 227.28166Z" fill-rule="nonzero" fill="#4a86e8" stroke="#efefef" stroke-width="1.0" stroke-linejoin="round" stroke-linecap="butt"></path><path d="M113.21162 441.7331L158.18799 441.7331L158.18799 489.7331L113.21162 489.7331Z" fill-rule="nonzero" fill="#4a86e8" stroke="#efefef" stroke-width="1.0" stroke-linejoin="round" stroke-linecap="butt"></path><path d="M94.20374 450.5074L135.19586 402.5074L176.18799 450.5074Z" fill-rule="nonzero" fill="#4a86e8" stroke="#efefef" stroke-width="1.0" stroke-linejoin="round" stroke-linecap="butt"></path><path d="M125.96345 458.8355L125.96345 455.4605L144.51031 455.4605L144.51031 458.1949Q141.77594 461.10114 139.08844 465.92926Q136.40094 470.7574 134.93219 475.85114Q133.88531 479.4449 133.58844 483.72614L129.97906 483.72614Q130.02594 480.35114 131.29938 475.56207Q132.57281 470.773 134.94781 466.3277Q137.32281 461.8824 139.99469 458.8355L125.96345 458.8355Z" fill-rule="nonzero" fill="#1c4587"></path><path d="M292.82053 524.22614L292.82053 517.36676L280.39865 517.36676L280.39865 514.148L293.46115 495.5855L296.33615 495.5855L296.33615 514.148L300.19553 514.148L300.19553 517.36676L296.33615 517.36676L296.33615 524.22614L292.82053 524.22614ZM292.82053 514.148L292.82053 501.24176L283.85178 514.148L292.82053 514.148Z" fill-rule="nonzero" fill="#1c4587"></path><path d="M392.93344 484.22614L389.41782 484.22614L389.41782 461.8199Q388.1522 463.03864 386.0897 464.24957Q384.0272 465.4605 382.38657 466.05426L382.38657 462.66364Q385.3397 461.273 387.54282 459.30426Q389.74594 457.3355 390.66782 455.47614L392.93344 455.47614L392.93344 484.22614ZM401.92953 470.10114Q401.92953 465.023 402.9764 461.92926Q404.0233 458.8355 406.0858 457.15582Q408.1483 455.47614 411.2733 455.47614Q413.57016 455.47614 415.31235 456.40582Q417.05453 457.3355 418.18735 459.0777Q419.32016 460.8199 419.9608 463.3355Q420.6014 465.85114 420.6014 470.10114Q420.6014 475.148 419.57016 478.24176Q418.5389 481.3355 416.4764 483.023Q414.4139 484.7105 411.2733 484.7105Q407.13266 484.7105 404.7733 481.74176Q401.92953 478.16364 401.92953 470.10114ZM405.55453 470.10114Q405.55453 477.148 407.20297 479.48395Q408.8514 481.8199 411.2733 481.8199Q413.69516 481.8199 415.3436 479.47614Q416.99203 477.1324 416.99203 470.10114Q416.99203 463.03864 415.3436 460.7105Q413.69516 458.3824 411.2264 458.3824Q408.80453 458.3824 407.36703 460.42926Q405.55453 463.05426 405.55453 470.10114Z" fill-rule="nonzero" fill="#1c4587"></path><path d="M246.39455 398.8485L246.39455 402.2235L227.47267 402.2235Q227.4258 400.9579 227.87892 399.786Q228.59767 397.8485 230.19142 395.9735Q231.78517 394.0985 234.78517 391.62976Q239.45705 387.80164 241.09767 385.56726Q242.7383 383.3329 242.7383 381.3485Q242.7383 379.25476 241.24611 377.81726Q239.75392 376.37976 237.34767 376.37976Q234.81642 376.37976 233.29298 377.9032Q231.76955 379.42664 231.7383 382.12976L228.12892 381.75476Q228.50392 377.7079 230.9258 375.5907Q233.34767 373.4735 237.4258 373.4735Q241.5508 373.4735 243.94923 375.75476Q246.34767 378.036 246.34767 381.42664Q246.34767 383.1454 245.64455 384.80164Q244.94142 386.4579 243.31642 388.29382Q241.69142 390.12976 237.89455 393.3329Q234.7383 395.98914 233.83986 396.93445Q232.94142 397.87976 232.34767 398.8485L246.39455 398.8485Z" fill-rule="nonzero" fill="#1c4587"></path><path d="M184.01315 245.69489Q181.82565 244.89801 180.77097 243.41364Q179.71628 241.92926 179.71628 239.85114Q179.71628 236.72614 181.95847 234.60114Q184.20065 232.47614 187.93503 232.47614Q191.68503 232.47614 193.96628 234.65582Q196.24753 236.83551 196.24753 239.96051Q196.24753 241.94489 195.20847 243.42145Q194.1694 244.89801 192.02878 245.69489Q194.6694 246.55426 196.0444 248.46832Q197.4194 250.38239 197.4194 253.03864Q197.4194 256.7105 194.82565 259.2105Q192.2319 261.7105 187.99753 261.7105Q183.74753 261.7105 181.15378 259.2027Q178.56003 256.6949 178.56003 252.94489Q178.56003 250.14801 179.97409 248.2652Q181.38815 246.38239 184.01315 245.69489ZM183.31003 239.74176Q183.31003 241.77301 184.61472 243.06207Q185.9194 244.35114 188.01315 244.35114Q190.0444 244.35114 191.34128 243.06989Q192.63815 241.78864 192.63815 239.92926Q192.63815 238.00739 191.30222 236.68707Q189.96628 235.36676 187.96628 235.36676Q185.96628 235.36676 184.63815 236.65582Q183.31003 237.94489 183.31003 239.74176ZM182.1694 252.96051Q182.1694 254.46051 182.88034 255.86676Q183.59128 257.273 184.99753 258.04645Q186.40378 258.8199 188.02878 258.8199Q190.5444 258.8199 192.18503 257.2027Q193.82565 255.58551 193.82565 253.08551Q193.82565 250.53864 192.13815 248.88239Q190.45065 247.22614 187.9194 247.22614Q185.43503 247.22614 183.80222 248.86676Q182.1694 250.50739 182.1694 252.96051Z" fill-rule="nonzero" fill="#1c4587"></path><path d="M367.34128 279.7363L363.84128 280.01755Q363.37253 277.93942 362.51315 277.00192Q361.09128 275.50192 358.99753 275.50192Q357.32565 275.50192 356.0444 276.43942Q354.38815 277.64255 353.43503 279.97067Q352.4819 282.2988 352.43503 286.59567Q353.70065 284.65817 355.5366 283.72067Q357.37253 282.78317 359.38815 282.78317Q362.90378 282.78317 365.37253 285.3691Q367.84128 287.95505 367.84128 292.06442Q367.84128 294.75192 366.68503 297.07224Q365.52878 299.39255 363.49753 300.6191Q361.46628 301.84567 358.88815 301.84567Q354.4819 301.84567 351.70847 298.6113Q348.93503 295.37692 348.93503 287.95505Q348.93503 279.65817 352.01315 275.89255Q354.68503 272.6113 359.21628 272.6113Q362.59128 272.6113 364.74753 274.50192Q366.90378 276.39255 367.34128 279.7363ZM352.9819 292.08005Q352.9819 293.89255 353.75534 295.5566Q354.52878 297.22067 355.9116 298.08786Q357.2944 298.95505 358.82565 298.95505Q361.0444 298.95505 362.64597 297.15817Q364.24753 295.3613 364.24753 292.28317Q364.24753 289.31442 362.6694 287.6035Q361.09128 285.89255 358.68503 285.89255Q356.31003 285.89255 354.64597 287.6035Q352.9819 289.31442 352.9819 292.08005Z" fill-rule="nonzero" fill="#1c4587"></path><path d="M472.1805 206.22614L475.88364 205.91364Q476.2899 208.60114 477.78207 209.96051Q479.27426 211.31989 481.38364 211.31989Q483.9305 211.31989 485.68832 209.40582Q487.44614 207.49176 487.44614 204.33551Q487.44614 201.31989 485.75082 199.58551Q484.0555 197.85114 481.32114 197.85114Q479.63364 197.85114 478.26645 198.61676Q476.89926 199.38239 476.118 200.61676L472.8055 200.19489L475.58676 185.47614L489.82114 185.47614L489.82114 188.83551L478.39926 188.83551L476.8524 196.53864Q479.4305 194.74176 482.25864 194.74176Q486.00864 194.74176 488.58676 197.33551Q491.1649 199.92926 491.1649 204.02301Q491.1649 207.89801 488.89926 210.74176Q486.14926 214.21051 481.38364 214.21051Q477.4774 214.21051 475.00864 212.02301Q472.5399 209.83551 472.1805 206.22614Z" fill-rule="nonzero" fill="#1c4587"></path><path d="M480.84128 412.27206L477.32565 412.27206L477.32565 389.8658Q476.06003 391.08456 473.99753 392.2955Q471.93503 393.50644 470.2944 394.1002L470.2944 390.70956Q473.24753 389.31894 475.45065 387.3502Q477.65378 385.38144 478.57565 383.52206L480.84128 383.52206L480.84128 412.27206Z" fill-rule="nonzero" fill="#1c4587"></path><path d="M572.62384 464.693L575.99884 464.3805Q576.43634 466.77112 577.6473 467.84143Q578.8582 468.91174 580.74884 468.91174Q582.37384 468.91174 583.5926 468.16956Q584.81134 467.42737 585.5926 466.18518Q586.37384 464.943 586.9051 462.83362Q587.43634 460.72424 587.43634 458.53674Q587.43634 458.30237 587.4051 457.83362Q586.3582 459.52112 584.5301 460.568Q582.70197 461.61487 580.57697 461.61487Q577.01447 461.61487 574.5535 459.03674Q572.0926 456.45862 572.0926 452.23987Q572.0926 447.8805 574.6629 445.22424Q577.2332 442.568 581.1082 442.568Q583.88947 442.568 586.2098 444.068Q588.5301 445.568 589.7254 448.35706Q590.9207 451.14612 590.9207 456.41174Q590.9207 461.89612 589.7332 465.15393Q588.5457 468.41174 586.19415 470.10706Q583.8426 471.80237 580.6707 471.80237Q577.31134 471.80237 575.18634 469.93518Q573.06134 468.068 572.62384 464.693ZM587.01447 452.05237Q587.01447 449.03674 585.4051 447.2555Q583.7957 445.47424 581.5301 445.47424Q579.18634 445.47424 577.45197 447.3883Q575.7176 449.30237 575.7176 452.34924Q575.7176 455.08362 577.366 456.79456Q579.01447 458.5055 581.43634 458.5055Q583.87384 458.5055 585.44415 456.79456Q587.01447 455.08362 587.01447 452.05237Z" fill-rule="nonzero" fill="#1c4587"></path><path d="M627.1225 205.66364L630.6381 205.19489Q631.2319 208.17926 632.6928 209.49957Q634.15375 210.81989 636.2319 210.81989Q638.71625 210.81989 640.4272 209.10114Q642.1381 207.38239 642.1381 204.85114Q642.1381 202.42926 640.5522 200.85114Q638.96625 199.27301 636.52875 199.27301Q635.52875 199.27301 634.0444 199.66364L634.435 196.58551Q634.7944 196.61676 635.0131 196.61676Q637.2475 196.61676 639.0444 195.44489Q640.84125 194.27301 640.84125 191.83551Q640.84125 189.89801 639.53656 188.63239Q638.2319 187.36676 636.15375 187.36676Q634.1069 187.36676 632.7397 188.65582Q631.3725 189.94489 630.9819 192.52301L627.46625 191.89801Q628.1069 188.36676 630.39594 186.42145Q632.685 184.47614 636.0756 184.47614Q638.4194 184.47614 640.39594 185.48395Q642.3725 186.49176 643.4194 188.22614Q644.46625 189.96051 644.46625 191.91364Q644.46625 193.77301 643.46625 195.29645Q642.46625 196.81989 640.5131 197.71051Q643.06 198.30426 644.46625 200.14801Q645.8725 201.99176 645.8725 204.77301Q645.8725 208.52301 643.1381 211.13239Q640.40375 213.74176 636.21625 213.74176Q632.4506 213.74176 629.95844 211.49176Q627.46625 209.24176 627.1225 205.66364Z" fill-rule="nonzero" fill="#1c4587"></path><path d="M686.856 332.45184L683.3404 332.45184L683.3404 310.0456Q682.07477 311.26434 680.01227 312.47528Q677.94977 313.68622 676.30914 314.27997L676.30914 310.88934Q679.26227 309.49872 681.4654 307.52997Q683.6685 305.56122 684.5904 303.70184L686.856 303.70184L686.856 332.45184ZM709.1021 332.45184L705.5865 332.45184L705.5865 310.0456Q704.32086 311.26434 702.25836 312.47528Q700.19586 313.68622 698.55524 314.27997L698.55524 310.88934Q701.50836 309.49872 703.7115 307.52997Q705.9146 305.56122 706.8365 303.70184L709.1021 303.70184L709.1021 332.45184Z" fill-rule="nonzero" fill="#1c4587"></path><path d="M126.1811 397.45407C138.60367 387.2279 168.25677 360.8504 200.71654 336.0971C233.17628 311.34384 280.11374 273.22964 320.93964 248.93439C361.76553 224.63911 424.8832 200.09361 445.6719 190.32545" fill-rule="nonzero" stroke="#0000ff" stroke-width="3.0" stroke-linejoin="round" stroke-linecap="butt" stroke-dasharray="24.0,9.0"></path><path d="M221.7559 260.95538C231.77428 274.73096 263.85565 307.82895 281.86615 343.60892C299.87665 379.3889 321.82678 453.6308 329.8189 475.63516" fill-rule="nonzero" stroke="#ff9900" stroke-width="3.0" stroke-linejoin="round" stroke-linecap="butt" stroke-dasharray="24.0,9.0"></path><path d="M414.11356 412.73758C410.85767 393.2013 383.1726 326.2774 394.57812 295.51974C405.98364 264.7621 445.2273 239.96332 482.54663 228.19167C519.86597 216.42001 595.83624 225.44012 618.49414 224.88983" fill-rule="nonzero" stroke="#00ff00" stroke-width="3.0" stroke-linejoin="round" stroke-linecap="butt" stroke-dasharray="24.0,9.0"></path><path d="M562.8897 430.77203C553.37225 422.2563 513.7996 409.98376 505.78473 379.67755C497.76987 349.37134 494.01178 271.97763 514.8005 248.93477C535.5892 225.8919 606.4724 231.40196 630.517 241.42033C654.56165 251.4387 654.3097 297.77423 659.0682 309.045" fill-rule="nonzero" stroke="#ff0000" stroke-width="3.0" stroke-linejoin="round" stroke-linecap="butt" stroke-dasharray="24.0,9.0"></path><path d="M604.7914 540.55634L784.1439 572.2503L793.48425 585.61163L783.4056 642.38306L783.4056 642.38306L604.05304 610.6891L594.7127 597.32776L604.7914 540.55634Z" fill-rule="nonzero" fill="#00ff00"></path><path d="M633.9821 565.3204L636.3583 551.9359L645.3902 553.532L645.11163 555.1012L637.8491 553.8178L637.1117 557.9716L643.38947 559.081L643.10815 560.6656L636.8304 559.5562L635.7516 565.63306L633.9821 565.3204ZM651.4488 567.1694Q650.3863 567.79083 649.4841 567.95667Q648.5818 568.1225 647.6124 567.9512Q646.02765 567.67114 645.3039 566.74194Q644.5802 565.81274 644.79596 564.5974Q644.9243 563.8743 645.3512 563.3468Q645.77814 562.81934 646.3641 562.5579Q646.9501 562.2965 647.6445 562.2288Q648.1614 562.17737 649.1499 562.24097Q651.19385 562.3483 652.18976 562.1911Q652.2499 561.8526 652.26624 561.7603Q652.4438 560.7603 652.0559 560.26337Q651.5234 559.5981 650.2771 559.3778Q649.1231 559.1739 648.49817 559.476Q647.8732 559.77814 647.4259 560.778L645.8513 560.2618Q646.2651 559.2718 646.87714 558.72943Q647.4892 558.187 648.4969 558.00806Q649.50464 557.82916 650.76636 558.0521Q652.01263 558.27234 652.7301 558.7006Q653.4475 559.12885 653.7376 559.64026Q654.02765 560.1517 654.04596 560.8531Q654.0646 561.2847 653.87067 562.3771L653.4801 564.577Q653.0731 566.8693 653.06525 567.4947Q653.0574 568.12 653.28217 568.73096L651.5589 568.42645Q651.38745 567.8725 651.4488 567.1694ZM651.9603 563.4834Q651.0051 563.6795 649.15845 563.6229Q648.11835 563.5819 647.6701 563.6931Q647.2219 563.8043 646.9283 564.1174Q646.6347 564.4304 646.5582 564.8612Q646.4408 565.52277 646.863 566.04956Q647.2852 566.5764 648.2392 566.745Q649.1932 566.9136 650.00684 566.621Q650.8205 566.3284 651.3 565.6833Q651.66266 565.1603 651.8538 564.0834L651.9603 563.4834ZM658.97656 568.214L658.9479 569.7163Q658.2309 569.7324 657.677 569.6345Q656.78455 569.4768 656.3427 569.1052Q655.9009 568.7336 655.78143 568.2444Q655.662 567.7552 655.9269 566.26294L656.9156 560.6937L655.7001 560.47894L655.9295 559.18665L657.145 559.4014L657.5711 557.00146L659.3769 556.3051L658.776 559.68964L660.43774 559.98334L660.2083 561.27563L658.5466 560.98193L657.5415 566.64343Q657.41583 567.35114 657.46497 567.5661Q657.5141 567.781 657.69226 567.93945Q657.8704 568.09784 658.23975 568.16315Q658.5013 568.20935 658.97656 568.214ZM667.41956 568.00824L669.07385 568.5227Q668.4116 569.9289 667.1807 570.5603Q665.9498 571.19165 664.2573 570.8926Q662.134 570.51733 661.1198 568.98944Q660.10565 567.4615 660.52625 565.0923Q660.9605 562.6462 662.4549 561.5139Q663.9492 560.3817 665.9649 560.7379Q667.919 561.0832 668.91504 562.6238Q669.9111 564.16437 669.48224 566.5797Q669.4577 566.7182 669.3904 567.0078L662.1587 565.72986Q661.967 567.3461 662.63226 568.33636Q663.29755 569.32666 664.51306 569.54144Q665.40546 569.69916 666.1273 569.3428Q666.8492 568.9864 667.41956 568.00824ZM662.4914 564.39233L667.9075 565.3494Q668.0155 564.115 667.617 563.4099Q667.00165 562.3174 665.7399 562.0944Q664.6167 561.89594 663.70447 562.5202Q662.79224 563.1444 662.4914 564.39233ZM670.86633 571.8383L671.1996 569.9614L673.0767 570.29315L672.7435 572.17004Q672.56055 573.2008 672.0779 573.774Q671.5953 574.3472 670.7505 574.547L670.4145 573.75775Q670.9759 573.63477 671.3013 573.2322Q671.62665 572.8295 671.80493 572.0042L670.86633 571.8383ZM684.2598 574.20514L686.35736 562.3899L681.95685 561.61224L682.2354 560.043L692.8368 561.91644L692.55817 563.48566L688.12683 562.7026L686.0293 574.5178L684.2598 574.20514ZM693.92444 564.04443L694.2576 562.1675L695.904 562.45844L695.5708 564.3353L693.92444 564.04443ZM691.8815 575.552L693.60486 565.84436L695.2512 566.1353L693.52783 575.8429L691.8815 575.552ZM695.94763 576.2705L697.6711 566.5629L699.1482 566.824L698.9051 568.1932Q699.4769 567.56433 700.3164 567.2605Q701.1559 566.9566 702.12524 567.1279Q703.20233 567.31824 703.8155 567.8868Q704.4287 568.45526 704.5609 569.3196Q706.01807 567.81586 707.86444 568.1421Q709.3108 568.3977 709.9458 569.335Q710.5808 570.2723 710.2858 571.93384L709.1032 578.5953L707.45685 578.3044L708.54114 572.1967Q708.71594 571.2121 708.6399 570.74646Q708.56384 570.2808 708.1872 569.9445Q707.8105 569.6082 707.24115 569.5076Q706.22565 569.3281 705.42847 569.88544Q704.6313 570.4427 704.36365 571.9504L703.364 577.5811L701.71765 577.29016L702.8374 570.98254Q703.0314 569.89026 702.7283 569.2734Q702.4252 568.65656 701.50195 568.4934Q700.8096 568.37103 700.153 568.6279Q699.4964 568.88477 699.1092 569.5462Q698.722 570.2077 698.4871 571.53076L697.594 576.56146L695.94763 576.2705ZM718.4528 577.0265L720.10706 577.54095Q719.4448 578.94714 718.2139 579.57855Q716.9831 580.2099 715.2905 579.9108Q713.1672 579.5356 712.153 578.0077Q711.13885 576.47974 711.5595 574.11053Q711.9938 571.6644 713.4881 570.53217Q714.9825 569.39996 716.9981 569.75616Q718.9522 570.10144 719.94824 571.642Q720.9443 573.1826 720.5155 575.598Q720.4909 575.73645 720.42365 576.02606L713.19196 574.7481Q713.0002 576.3644 713.66547 577.3547Q714.33075 578.3449 715.54626 578.5597Q716.4387 578.7174 717.1606 578.361Q717.8824 578.00464 718.4528 577.0265ZM713.5246 573.4106L718.9407 574.3677Q719.04877 573.1333 718.6502 572.42816Q718.03485 571.3357 716.77313 571.11273Q715.6499 570.91425 714.73773 571.53845Q713.8255 572.16266 713.5246 573.4106ZM721.8996 580.85657L722.2328 578.9797L724.1099 579.3114L723.77673 581.1883Q723.59375 582.21906 723.11115 582.79224Q722.6285 583.3655 721.7837 583.56525L721.44775 582.776Q722.0091 582.6531 722.33453 582.2504Q722.6599 581.8478 722.83813 581.02246L721.8996 580.85657ZM738.2295 582.50464Q737.167 583.12616 736.2648 583.292Q735.3625 583.4578 734.3931 583.2865Q732.80835 583.0065 732.0846 582.0773Q731.3609 581.1481 731.57666 579.93274Q731.705 579.20966 732.13196 578.6821Q732.55884 578.1546 733.1448 577.89325Q733.7308 577.63184 734.4252 577.56415Q734.9421 577.5127 735.9306 577.5763Q737.97455 577.6836 738.97046 577.5264Q739.0306 577.1879 739.04694 577.09564Q739.2245 576.09564 738.8366 575.5987Q738.3041 574.93335 737.0578 574.71313Q735.9038 574.5092 735.2789 574.81134Q734.65393 575.11346 734.20667 576.11334L732.632 575.5971Q733.0458 574.6071 733.65784 574.0647Q734.2699 573.52234 735.2776 573.3434Q736.28534 573.1645 737.54706 573.38745Q738.79333 573.60767 739.5108 574.03595Q740.2282 574.4642 740.5183 574.9756Q740.80835 575.487 740.82666 576.18835Q740.8453 576.62006 740.65137 577.71234L740.2608 579.91235Q739.8538 582.20465 739.84595 582.82996Q739.8381 583.4553 740.06287 584.0663L738.3396 583.7618Q738.16815 583.2078 738.2295 582.50464ZM738.741 578.8187Q737.7858 579.01483 735.93915 578.95825Q734.89905 578.91724 734.45087 579.02844Q734.0026 579.13965 733.709 579.4527Q733.4154 579.76575 733.3389 580.19653Q733.2215 580.85803 733.6437 581.3849Q734.0659 581.9117 735.0199 582.08026Q735.9739 582.24884 736.78754 581.9563Q737.6012 581.66376 738.08075 581.0186Q738.44336 580.4956 738.6345 579.4187L738.741 578.8187ZM741.8946 584.38995L743.618 574.6824L745.09515 574.9434L744.8493 576.328Q746.21045 574.91833 748.2261 575.27454Q749.1031 575.42957 749.78564 575.8754Q750.46826 576.32135 750.73834 576.9006Q751.0084 577.47986 751.03937 578.19934Q751.04974 578.67725 750.84766 579.8157L749.78796 585.78485L748.1416 585.4939L749.19037 579.58624Q749.36786 578.5863 749.26434 578.0523Q749.16077 577.5183 748.7203 577.139Q748.2798 576.7597 747.61816 576.64276Q746.5719 576.4579 745.6928 576.9848Q744.8137 577.5118 744.4805 579.3887L743.54095 584.6809L741.8946 584.38995ZM758.40515 587.3076L758.6236 586.07684Q757.44366 587.35986 755.6589 587.04443Q754.5049 586.8405 753.6412 586.0294Q752.77747 585.21826 752.4501 583.97833Q752.12274 582.7384 752.38763 581.2461Q752.6444 579.8 753.33936 578.701Q754.03436 577.60205 755.108 577.14124Q756.18164 576.6804 757.3818 576.8925Q758.25885 577.0475 758.878 577.5377Q759.49713 578.02795 759.8214 578.70404L760.6736 573.9041L762.30457 574.1923L759.9284 587.5768L758.40515 587.3076ZM754.0648 581.5425Q753.7343 583.404 754.36285 584.4671Q754.9914 585.5302 756.05304 585.7178Q757.1301 585.90814 758.03973 585.1644Q758.94934 584.4208 759.27167 582.6054Q759.62396 580.6208 759.0199 579.5541Q758.4158 578.48737 757.2926 578.2889Q756.20013 578.0958 755.30316 578.8576Q754.4062 579.61945 754.0648 581.5425Z" fill-rule="nonzero" fill="#000000"></path><path d="M637.18097 587.6712L639.5571 574.28674L641.3266 574.5994L639.23175 586.3993L645.83264 587.56573L645.5513 589.1503L637.18097 587.6712ZM653.81226 589.3725Q652.74976 589.99396 651.8475 590.1598Q650.94525 590.3256 649.9759 590.15436Q648.39105 589.87427 647.66736 588.9451Q646.9436 588.0159 647.15936 586.80054Q647.2878 586.0775 647.71466 585.55Q648.14154 585.02246 648.72754 584.7611Q649.3135 584.4997 650.0079 584.432Q650.52484 584.38055 651.5133 584.44415Q653.55725 584.55145 654.5532 584.3942Q654.6133 584.0558 654.6297 583.9635Q654.8072 582.9635 654.4194 582.46655Q653.88684 581.8012 652.6405 581.581Q651.4865 581.3771 650.8616 581.6792Q650.23663 581.98126 649.78937 582.9812L648.2147 582.46497Q648.62854 581.475 649.2406 580.93256Q649.8526 580.3902 650.86035 580.21124Q651.8681 580.0323 653.12976 580.25525Q654.3761 580.4755 655.0935 580.90375Q655.811 581.33203 656.101 581.84344Q656.3911 582.35486 656.4094 583.0562Q656.428 583.4879 656.2341 584.5802L655.8435 586.7802Q655.4366 589.07245 655.4287 589.6978Q655.42084 590.3232 655.6456 590.93414L653.9223 590.6296Q653.75085 590.0757 653.81226 589.3725ZM654.3238 585.6865Q653.3685 585.8827 651.52185 585.8261Q650.4818 585.7851 650.03357 585.8963Q649.5854 586.0075 649.29175 586.32056Q648.9981 586.6336 648.92163 587.0644Q648.8042 587.7259 649.22644 588.25275Q649.6487 588.77954 650.6026 588.9481Q651.5566 589.1167 652.37024 588.82416Q653.1839 588.5316 653.66345 587.8865Q654.02606 587.36346 654.2173 586.28656L654.3238 585.6865ZM657.47736 591.2578L659.20074 581.55023L660.67786 581.8113L660.432 583.19586Q661.79315 581.7862 663.8088 582.1424Q664.68585 582.29736 665.3684 582.7433Q666.05096 583.18915 666.32104 583.76843Q666.5911 584.3477 666.6221 585.0672Q666.6325 585.54504 666.43036 586.68353L665.37067 592.65265L663.7243 592.36176L664.7731 586.4541Q664.9506 585.4541 664.84705 584.92017Q664.74347 584.38617 664.303 584.00684Q663.8625 583.62756 663.20087 583.5106Q662.1546 583.32574 661.2755 583.85266Q660.3964 584.3796 660.06323 586.25653L659.1237 591.54877L657.47736 591.2578ZM667.2604 593.8117L668.8015 594.3379Q668.7781 595.0954 669.1796 595.51544Q669.7005 596.0676 670.76215 596.25525Q671.91614 596.45917 672.6122 596.1141Q673.3082 595.769 673.6838 594.9944Q673.897 594.5085 674.1684 592.8904Q672.8646 593.977 671.2644 593.6942Q669.26416 593.3407 668.4208 591.7002Q667.57733 590.05963 667.9351 588.04425Q668.18097 586.65967 668.89764 585.57245Q669.6144 584.4853 670.68164 584.01544Q671.74896 583.54553 673.02606 583.77124Q674.7494 584.07574 675.6114 585.6561L675.819 584.4869L677.3422 584.7561L675.8537 593.1406Q675.4495 595.4175 674.81995 596.2821Q674.19037 597.14667 673.09326 597.51605Q671.9962 597.8855 670.5345 597.6272Q668.7958 597.31995 667.8657 596.3463Q666.9356 595.37274 667.2604 593.8117ZM669.64954 588.2203Q669.3081 590.1433 669.91406 591.15485Q670.52 592.1663 671.6586 592.36755Q672.78186 592.56604 673.70685 591.8251Q674.6319 591.0841 674.96234 589.2226Q675.2792 587.438 674.64655 586.39795Q674.0139 585.358 672.90607 585.1622Q671.81366 584.9691 670.88727 585.7178Q669.9609 586.46643 669.64954 588.2203ZM684.26685 595.9919L684.5208 594.56116Q683.10535 596.0088 681.15125 595.66345Q680.305 595.5139 679.6175 595.0513Q678.92993 594.5886 678.65576 594.0324Q678.3816 593.47626 678.3561 592.72595Q678.35114 592.21735 678.53687 591.1712L679.6048 585.1559L681.25116 585.44684L680.2952 590.8314Q680.0658 592.1237 680.0789 592.5862Q680.11804 593.25946 680.56024 593.71844Q681.0025 594.17737 681.741 594.3079Q682.4796 594.4384 683.19275 594.1757Q683.9059 593.91296 684.29126 593.3067Q684.6766 592.7005 684.8978 591.45435L685.821 586.2544L687.46735 586.54535L685.74396 596.2529L684.26685 595.9919ZM694.6819 596.5947Q693.6194 597.2162 692.71716 597.382Q691.8149 597.54785 690.8455 597.3766Q689.2607 597.0965 688.537 596.16736Q687.81323 595.23816 688.02905 594.02277Q688.1574 593.2997 688.5843 592.7722Q689.0112 592.2447 689.59717 591.9833Q690.1831 591.7219 690.8775 591.6542Q691.3945 591.6027 692.38293 591.6664Q694.42694 591.7737 695.42285 591.61646Q695.4829 591.278 695.4993 591.1857Q695.6769 590.1857 695.289 589.6888Q694.7565 589.02344 693.51013 588.8032Q692.35614 588.5993 691.73126 588.90137Q691.1063 589.2035 690.659 590.2034L689.0844 589.68713Q689.49817 588.6972 690.1102 588.1548Q690.7223 587.61237 691.73 587.4335Q692.73773 587.2545 693.99945 587.4775Q695.2457 587.69775 695.9632 588.126Q696.6806 588.55426 696.9707 589.0657Q697.26074 589.577 697.27905 590.27844Q697.29767 590.71014 697.1037 591.8024L696.71313 594.0024Q696.3062 596.2947 696.29834 596.92004Q696.29047 597.5454 696.51526 598.1564L694.79193 597.8518Q694.62054 597.2979 694.6819 596.5947ZM695.1934 592.90875Q694.23816 593.1049 692.39154 593.04834Q691.35144 593.0073 690.9032 593.1185Q690.455 593.22974 690.1614 593.5428Q689.86774 593.85583 689.7913 594.2866Q689.6738 594.9481 690.09607 595.475Q690.5183 596.0018 691.4723 596.17035Q692.4262 596.3389 693.2399 596.0464Q694.0536 595.7538 694.5331 595.10864Q694.89575 594.5857 695.0869 593.5087L695.1934 592.90875ZM697.9126 599.2284L699.45374 599.7546Q699.43036 600.5121 699.83185 600.93207Q700.3527 601.48425 701.41437 601.6719Q702.56836 601.8758 703.2644 601.53076Q703.96045 601.18567 704.336 600.4111Q704.54926 599.9251 704.8206 598.30707Q703.51685 599.3936 701.9167 599.11084Q699.9164 598.7574 699.073 597.1168Q698.2296 595.47626 698.5874 593.46094Q698.8332 592.0763 699.54987 590.98914Q700.2666 589.902 701.3339 589.43207Q702.4012 588.9622 703.6783 589.18787Q705.4016 589.49243 706.2636 591.07275L706.4712 589.90356L707.99445 590.1727L706.506 598.55725Q706.10175 600.83417 705.47217 601.6987Q704.8426 602.5633 703.7455 602.93274Q702.64844 603.3021 701.1867 603.0438Q699.448 602.7366 698.51794 601.763Q697.5878 600.7894 697.9126 599.2284ZM700.30176 593.63696Q699.9603 595.56 700.5663 596.5715Q701.17224 597.583 702.31085 597.7842Q703.4341 597.98267 704.35913 597.24176Q705.2841 596.5008 705.6146 594.6393Q705.9314 592.8547 705.29877 591.81464Q704.66614 590.7746 703.5583 590.57886Q702.4659 590.3858 701.5395 591.13446Q700.6131 591.8831 700.30176 593.63696ZM715.7658 598.33716L717.4201 598.8516Q716.7579 600.2579 715.527 600.8892Q714.29614 601.5206 712.6036 601.2215Q710.4802 600.8463 709.46606 599.31836Q708.4519 597.79047 708.87256 595.42126Q709.3068 592.9751 710.80115 591.8429Q712.29553 590.71063 714.31116 591.06683Q716.26526 591.4122 717.2613 592.95276Q718.2573 594.49335 717.82855 596.9087Q717.80396 597.0471 717.7367 597.33673L710.50494 596.0588Q710.31323 597.6751 710.9785 598.66534Q711.6438 599.6556 712.8593 599.8704Q713.7518 600.0281 714.4736 599.6717Q715.19543 599.3153 715.7658 598.33716ZM710.83765 594.72125L716.2537 595.67834Q716.36176 594.444 715.96326 593.7389Q715.3479 592.64636 714.0862 592.4234Q712.96295 592.2249 712.0507 592.8491Q711.13855 593.4733 710.83765 594.72125ZM720.6336 594.34204L720.9668 592.46515L722.84393 592.7969L722.51074 594.67377L720.6336 594.34204ZM719.2434 602.1727L719.5766 600.29584L721.45374 600.6275L721.12054 602.50446L719.2434 602.1727ZM727.7285 603.6722L735.2592 591.19855L737.1671 591.5357L740.2686 605.8882L738.253 605.532L737.4046 601.1931L731.80383 600.2034L729.6211 604.0066L727.7285 603.6722ZM732.5656 598.86237L737.1047 599.6645L736.3808 595.6967Q736.0323 593.90564 735.91846 592.759Q735.4275 594.005 734.74194 595.185L732.5656 598.86237ZM741.24396 606.0605L742.96735 596.3529L744.44446 596.61395L744.19867 597.99854Q745.55975 596.5889 747.5754 596.94507Q748.45245 597.1001 749.135 597.54596Q749.81757 597.9919 750.08765 598.57117Q750.3577 599.1504 750.38873 599.86993Q750.3991 600.3478 750.19696 601.4862L749.13727 607.4554L747.4909 607.1644L748.5397 601.2568Q748.7172 600.25684 748.61365 599.72284Q748.5101 599.18884 748.06964 598.8095Q747.62915 598.43024 746.9675 598.3133Q745.9212 598.1284 745.0421 598.65533Q744.1631 599.1823 743.82983 601.0592L742.8903 606.35144L741.24396 606.0605Z" fill-rule="nonzero" fill="#000000"></path><path d="M614.18036 605.39215L616.5565 592.0077L626.25006 593.7207L625.9715 595.2899L618.0474 593.8896L617.3182 597.99725L624.7345 599.3078L624.45593 600.877L617.0396 599.56647L616.23114 604.12024L624.46295 605.57495L624.18164 607.15955L614.18036 605.39215ZM626.03973 604.5049L627.71716 604.53156Q627.68085 605.54065 628.2125 606.16614Q628.74414 606.7916 629.8674 606.9901Q631.006 607.19135 631.63416 606.8263Q632.2623 606.4613 632.3716 605.84595Q632.4699 605.2921 632.05023 604.8847Q631.75 604.60956 630.47144 604.03455Q628.73773 603.25214 628.0964 602.79767Q627.455 602.3432 627.1986 601.68695Q626.94214 601.03076 627.0678 600.3231Q627.1825 599.67694 627.5809 599.17615Q627.97925 598.6753 628.55255 598.3958Q628.9864 598.1869 629.6835 598.10376Q630.3806 598.0207 631.1346 598.15393Q632.2886 598.35785 633.0915 598.8409Q633.8944 599.3239 634.20245 599.9575Q634.5105 600.5911 634.4978 601.55676L632.8593 601.4893Q632.88275 600.7319 632.427 600.21497Q631.97125 599.6981 631.01733 599.52954Q629.8787 599.3283 629.3348 599.621Q628.7909 599.9136 628.7035 600.4059Q628.6461 600.72894 628.79974 601.0258Q628.9533 601.3227 629.3541 601.56805Q629.5839 601.7039 630.724 602.25446Q632.38074 603.0232 633.02124 603.43787Q633.66174 603.85254 633.95306 604.4911Q634.2443 605.12964 634.0941 605.97577Q633.9494 606.7912 633.34265 607.4376Q632.73596 608.0841 631.7585 608.316Q630.781 608.54785 629.6424 608.3467Q627.7499 608.0122 626.8967 607.05225Q626.0436 606.0923 626.03973 604.5049ZM635.2255 606.1281L636.90295 606.1548Q636.86664 607.1639 637.3983 607.78937Q637.92993 608.4149 639.05316 608.6134Q640.1918 608.8146 640.81995 608.4496Q641.4481 608.0846 641.5574 607.4692Q641.6557 606.91534 641.2361 606.508Q640.9358 606.2328 639.6572 605.6578Q637.9236 604.87537 637.28217 604.4209Q636.6408 603.96643 636.3844 603.31024Q636.1279 602.65405 636.2536 601.94635Q636.3683 601.30023 636.76666 600.7994Q637.16504 600.2986 637.73834 600.01904Q638.1722 599.8101 638.86926 599.72705Q639.5664 599.644 640.3204 599.7772Q641.47437 599.98114 642.2773 600.4642Q643.0802 600.9472 643.38824 601.58075Q643.69635 602.21436 643.6836 603.18L642.04517 603.1126Q642.06854 602.3551 641.6128 601.83826Q641.1571 601.32135 640.2031 601.1528Q639.0645 600.9516 638.5206 601.2442Q637.9767 601.5368 637.8893 602.0291Q637.832 602.35223 637.98553 602.6491Q638.13916 602.946 638.5399 603.19135Q638.7697 603.32715 639.9098 603.8777Q641.5665 604.6465 642.20703 605.06116Q642.84753 605.47577 643.13885 606.1143Q643.4302 606.7529 643.2799 607.59906Q643.1352 608.4144 642.52844 609.0609Q641.92175 609.7074 640.9443 609.9393Q639.96686 610.17114 638.82825 609.9699Q636.93567 609.6355 636.0825 608.6755Q635.2294 607.7155 635.2255 606.1281ZM651.1118 610.68085Q650.0493 611.3023 649.1471 611.46814Q648.2448 611.634 647.27545 611.46265Q645.6907 611.1826 644.9669 610.2534Q644.2432 609.3243 644.459 608.1089Q644.58734 607.3858 645.0142 606.8583Q645.44116 606.3308 646.0271 606.0694Q646.6131 605.808 647.3075 605.7403Q647.8244 605.68884 648.81287 605.75244Q650.8569 605.8598 651.8528 605.7026Q651.9129 605.36414 651.92926 605.2718Q652.1068 604.2718 651.71893 603.77484Q651.1864 603.10956 649.9401 602.8893Q648.78613 602.68536 648.1612 602.9875Q647.53625 603.2896 647.0889 604.2895L645.51434 603.77325Q645.9281 602.78326 646.54016 602.2409Q647.1522 601.6985 648.1599 601.5196Q649.16766 601.34064 650.4294 601.5636Q651.67566 601.7838 652.3931 602.2121Q653.11053 602.6403 653.40063 603.15173Q653.6907 603.66315 653.709 604.36456Q653.7276 604.79626 653.5337 605.88855L653.1431 608.0885Q652.73615 610.3808 652.7283 611.00616Q652.7204 611.63153 652.9452 612.24243L651.2219 611.9379Q651.0505 611.38403 651.1118 610.68085ZM651.62335 606.9949Q650.66815 607.191 648.8215 607.1344Q647.7814 607.09344 647.3331 607.2046Q646.88495 607.3158 646.5913 607.62885Q646.2977 607.94196 646.22125 608.3727Q646.1038 609.03424 646.526 609.56104Q646.94824 610.0879 647.9022 610.2565Q648.8562 610.42505 649.66986 610.13245Q650.4835 609.8399 650.963 609.19476Q651.3257 608.67175 651.51685 607.59485L651.62335 606.9949ZM654.0363 616.29095L654.14014 614.7226Q654.6541 614.95624 655.05414 615.0269Q655.5927 615.1221 655.9563 614.9959Q656.3199 614.8698 656.59265 614.5848Q656.7902 614.36584 657.3035 613.44104Q657.37427 613.3107 657.5284 613.06824L655.5771 602.69543L657.34656 603.0081L658.3626 608.995Q658.5742 610.1272 658.67163 611.3662Q659.1507 610.2767 659.74194 609.27045L662.80884 603.9733L664.4552 604.2643L659.009 613.4885Q658.1402 614.98517 657.6952 615.5254Q657.1196 616.2646 656.4834 616.54095Q655.84717 616.81726 655.06244 616.6786Q654.5855 616.5943 654.0363 616.29095ZM669.3118 610.13654Q669.7898 607.4442 671.5298 606.403Q672.9673 605.5463 674.7675 605.8645Q676.7678 606.21796 677.80365 607.7576Q678.83954 609.2973 678.4299 611.605Q678.0967 613.4819 677.3452 614.45184Q676.5938 615.4219 675.41925 615.8252Q674.24475 616.2285 672.96765 616.0028Q670.93665 615.6439 669.9071 614.1133Q668.87756 612.58264 669.3118 610.13654ZM671.00433 610.4356Q670.6738 612.2971 671.3255 613.3643Q671.9771 614.43146 673.208 614.649Q674.43896 614.8665 675.412 614.0785Q676.385 613.29047 676.7237 611.3828Q677.0432 609.5828 676.3916 608.5157Q675.74 607.4485 674.5245 607.2337Q673.2935 607.0162 672.31415 607.7951Q671.33484 608.5741 671.00433 610.4356ZM679.28436 616.8969L681.00775 607.18933L682.48486 607.4504L682.2391 608.83496Q683.60016 607.4253 685.6158 607.7815Q686.49286 607.9365 687.1754 608.3824Q687.858 608.8283 688.12805 609.40753Q688.39813 609.9868 688.42914 610.7063Q688.4395 611.18414 688.23737 612.32263L687.1777 618.2918L685.5313 618.00085L686.5801 612.0932Q686.7576 611.09326 686.65405 610.55927Q686.5505 610.02527 686.11 609.64594Q685.66956 609.26666 685.00793 609.1497Q683.9616 608.96484 683.0825 609.49176Q682.2035 610.01874 681.87024 611.8956L680.9307 617.18787L679.28436 616.8969ZM694.9137 619.6589L697.28986 606.27435L706.3218 607.8704L706.0432 609.43964L698.78076 608.15625L698.04333 612.31006L704.32104 613.41943L704.03973 615.004L697.762 613.89465L696.68317 619.97156L694.9137 619.6589ZM705.8127 621.58484L707.5361 611.87726L709.0132 612.1383L708.75104 613.6152Q709.5033 612.68506 710.039 612.43854Q710.5747 612.1921 711.1594 612.2954Q711.9903 612.44226 712.75635 613.13293L711.9166 614.5554Q711.3794 614.0955 710.7639 613.98676Q710.2254 613.8916 709.74493 614.1399Q709.2644 614.3882 708.97876 614.9248Q708.5461 615.75275 708.36035 616.7989L707.45905 621.8758L705.8127 621.58484ZM719.1474 620.7203L720.8017 621.23474Q720.13947 622.6409 718.90857 623.27234Q717.67773 623.9037 715.98517 623.6046Q713.8618 623.2294 712.84766 621.7015Q711.8335 620.1735 712.25415 617.8043Q712.68835 615.3582 714.18274 614.22595Q715.6771 613.09375 717.69275 613.44995Q719.64685 613.7952 720.6429 615.3358Q721.6389 616.8764 721.21014 619.29175Q721.18555 619.43024 721.1183 619.71985L713.88654 618.4419Q713.6948 620.05817 714.3601 621.04846Q715.0254 622.0387 716.2409 622.2535Q717.13336 622.4112 717.85516 622.0548Q718.577 621.6984 719.1474 620.7203ZM714.21924 617.1044L719.6353 618.06146Q719.74335 616.827 719.34485 616.12195Q718.7295 615.0294 717.4678 614.80646Q716.34454 614.608 715.4323 615.23224Q714.52014 615.85645 714.21924 617.1044ZM729.3648 622.5258L731.0191 623.0403Q730.3569 624.4465 729.126 625.0779Q727.89514 625.7092 726.2026 625.41016Q724.0792 625.0349 723.06506 623.507Q722.0509 621.97906 722.47156 619.60986Q722.9058 617.16376 724.40015 616.03156Q725.89453 614.8993 727.91016 615.2555Q729.86426 615.6008 730.8603 617.1414Q731.8563 618.68195 731.42755 621.09735Q731.40295 621.2358 731.3357 621.5254L724.10394 620.24744Q723.91223 621.8637 724.5775 622.854Q725.2428 623.84424 726.4583 624.059Q727.35077 624.21674 728.0726 623.86035Q728.79443 623.50397 729.3648 622.5258ZM724.43665 618.9099L729.8527 619.867Q729.96075 618.6326 729.56226 617.9275Q728.9469 616.835 727.6852 616.61206Q726.56195 616.4136 725.6497 617.0378Q724.73755 617.662 724.43665 618.9099ZM740.0392 627.6331L738.861 613.62054L740.67664 613.9414L741.1509 623.06946Q741.2436 624.51385 741.2341 625.9085Q742.12146 623.8598 742.27386 623.53766L746.4313 614.9583L748.57 615.33624L749.29156 622.4453Q749.56683 625.0961 749.48126 627.3659Q749.9668 626.1506 750.6745 624.5779L754.2938 616.3477L756.0787 616.66315L750.0251 629.39777L748.3172 629.09595L747.31226 618.3985Q747.18506 617.059 747.17535 616.75586Q746.7961 617.64087 746.49677 618.2544L741.8394 627.95123L740.0392 627.6331ZM756.88336 618.74115L757.21655 616.86426L758.8629 617.15515L758.5297 619.03204L756.88336 618.74115ZM754.8404 630.2487L756.5638 620.54114L758.21014 620.83203L756.48676 630.5396L754.8404 630.2487ZM758.8758 630.9618L761.25195 617.57733L762.8984 617.8683L760.52216 631.25275L758.8758 630.9618ZM762.9574 631.6831L765.33356 618.29865L766.9799 618.58954L764.60376 631.974L762.9574 631.6831Z" fill-rule="nonzero" fill="#000000"></path><path d="M37.64955 570.2886L180.4547 543.6235L194.53148 553.28094L205.55507 612.6508L205.55507 612.6508L62.749912 639.3159L48.67313 629.65845L37.64955 570.2886Z" fill-rule="nonzero" fill="#ff0000"></path><path d="M101.32401 579.7028L98.842384 566.3375L103.86495 565.39966Q105.38555 565.1157 106.38896 565.3417Q107.39238 565.56757 108.07149 566.315Q108.7506 567.06244 108.921745 567.98413Q109.08148 568.8445 108.76189 569.6909Q108.4423 570.5374 107.575584 571.1761Q108.85459 571.30286 109.667114 572.04126Q110.47963 572.77966 110.69641 573.9472Q110.870415 574.88434 110.628494 575.764Q110.38658 576.6437 109.88421 577.1905Q109.38184 577.7373 108.54003 578.12494Q107.69822 578.51263 106.42338 578.7507L101.32401 579.7028ZM101.64987 571.615L104.53747 571.0758Q105.72015 570.855 106.198494 570.6067Q106.83723 570.28076 107.097244 569.7554Q107.35726 569.23 107.22605 568.5233Q107.10339 567.86273 106.686714 567.416Q106.270035 566.96924 105.643036 566.88763Q105.01604 566.806 103.57224 567.0756L100.89968 567.57465L101.64987 571.615ZM102.796555 577.79065L106.12958 577.16833Q106.98971 577.0077 107.31621 576.8832Q107.91062 576.6609 108.27827 576.33Q108.645905 575.9991 108.81574 575.45874Q108.98557 574.9184 108.86862 574.2885Q108.72886 573.53577 108.24218 573.0544Q107.7555 572.57306 107.03832 572.4765Q106.321144 572.37994 105.0463 572.618L101.94368 573.1973L102.796555 577.79065ZM113.40258 577.44745L111.60269 567.7538L113.0772 567.47845L113.351036 568.95325Q113.728226 567.8179 114.14304 567.3986Q114.55786 566.97943 115.141525 566.8705Q115.97094 566.7156 116.93091 567.09265L116.645 568.71967Q115.98037 568.47815 115.36599 568.5929Q114.82841 568.6933 114.46592 569.0948Q114.10343 569.4962 114.02466 570.09906Q113.910774 571.02637 114.104744 572.071L115.04605 577.1406L113.40258 577.44745ZM117.4068 564.8103L117.0588 562.9361L118.70227 562.6292L119.05026 564.5034L117.4068 564.8103ZM119.54042 576.3014L117.74053 566.60767L119.384 566.30084L121.18389 575.9945L119.54042 576.3014ZM129.65573 571.1859L131.38522 571.0855Q131.2597 572.6349 130.32947 573.659Q129.39922 574.68304 127.70967 574.99854Q125.59006 575.3943 124.10348 574.3208Q122.6169 573.2473 122.17762 570.8815Q121.72408 568.43884 122.72487 566.8532Q123.72566 565.2676 125.737755 564.8919Q127.688416 564.52765 129.16249 565.6194Q130.63657 566.7111 131.0844 569.12305Q131.11008 569.2613 131.14891 569.556L123.929924 570.904Q124.31873 572.4845 125.28967 573.1774Q126.26061 573.87036 127.47402 573.6438Q128.36487 573.4774 128.9153 572.88983Q129.46571 572.30225 129.65573 571.1859ZM123.771065 569.5349L129.17763 568.5253Q128.84476 567.3318 128.2238 566.81195Q127.26361 566.00574 126.004135 566.2409Q124.88289 566.45026 124.24843 567.3555Q123.61397 568.2608 123.771065 569.5349ZM134.19824 573.56445L132.63795 565.1612L131.1788 565.43365L130.9392 564.1432L132.39836 563.8707L132.20724 562.84143Q132.02754 561.8736 132.10806 561.36584Q132.21866 560.6776 132.74495 560.174Q133.27122 559.6704 134.34639 559.46967Q135.03757 559.3406 135.91087 559.3365L135.93324 560.8264Q135.40927 560.8289 134.94849 560.9149Q134.19586 561.0555 133.94716 561.42773Q133.69844 561.80005 133.86102 562.6757L134.02647 563.5667L135.9157 563.214L136.15529 564.5044L134.26607 564.8572L135.82635 573.26044L134.19824 573.56445Z" fill-rule="nonzero" fill="#ffffff"></path><path d="M64.33222 608.43396L61.8506 595.06866L63.632305 594.73596L66.11393 608.1013L64.33222 608.43396ZM68.9206 607.5772L67.12071 597.88354L68.59522 597.6082L68.851944 598.99084Q69.630455 597.1924 71.642555 596.81665Q72.51805 596.6532 73.31378 596.83044Q74.10951 597.0077 74.566025 597.45496Q75.02253 597.9022 75.30448 598.5648Q75.482216 599.0085 75.69329 600.1453L76.80004 606.10596L75.15657 606.41284L74.06123 600.5137Q73.875824 599.5151 73.591125 599.05164Q73.30643 598.58826 72.76073 598.3881Q72.21503 598.188 71.554565 598.31134Q70.51012 598.50635 69.872475 599.3089Q69.23483 600.11145 69.58283 601.98566L70.56407 607.2703L68.9206 607.5772ZM82.44033 603.52686L82.9417 604.94324Q82.2762 605.2106 81.72326 605.31384Q80.832405 605.48016 80.28813 605.2877Q79.74385 605.09534 79.46003 604.6794Q79.17621 604.2635 78.89952 602.7733L77.86694 597.21216L76.653534 597.4387L76.41393 596.14825L77.627335 595.9217L77.18236 593.52515L78.62791 592.238L79.25545 595.6177L80.914276 595.3079L81.15388 596.5984L79.49505 596.90814L80.54475 602.5615Q80.675964 603.2682 80.79752 603.4521Q80.91908 603.63605 81.14157 603.7217Q81.36407 603.8073 81.7327 603.73846Q81.993805 603.6897 82.44033 603.52686ZM90.271545 600.36383L92.00103 600.26337Q91.87552 601.81274 90.945274 602.83685Q90.01504 603.8609 88.325485 604.1764Q86.20587 604.5722 84.71929 603.49866Q83.23271 602.4252 82.793434 600.0594Q82.3399 597.61676 83.34068 596.0311Q84.34147 594.4455 86.35357 594.06976Q88.30423 593.7055 89.778305 594.79724Q91.25237 595.889 91.70021 598.3009Q91.72588 598.43915 91.76472 598.7339L84.54574 600.08185Q84.93455 601.66235 85.90549 602.3553Q86.87643 603.0482 88.08983 602.82166Q88.98068 602.6553 89.531105 602.06775Q90.08153 601.48016 90.271545 600.36383ZM84.38688 598.71277L89.793434 597.70325Q89.46058 596.5097 88.839615 595.9898Q87.879425 595.1836 86.61994 595.41876Q85.498695 595.6282 84.864235 596.53345Q84.229774 597.4387 84.38688 598.71277ZM94.39935 602.81976L92.599464 593.12604L94.073975 592.8507L94.34781 594.3255Q94.725 593.1901 95.13982 592.77094Q95.554634 592.3517 96.1383 592.24274Q96.96771 592.0878 97.92768 592.4649L97.64177 594.0919Q96.97714 593.85046 96.36276 593.96515Q95.82518 594.06555 95.46269 594.46704Q95.100204 594.8685 95.02143 595.4713Q94.90755 596.3986 95.10152 597.44324L96.04282 602.5129L94.39935 602.81976ZM103.209755 601.1746L97.72357 592.16925L99.459206 591.84515L102.62632 597.26215Q103.13823 598.1361 103.60297 599.09845Q103.67538 598.29016 103.87505 597.1402L104.92719 590.82416L106.616745 590.50867L104.745705 600.8878L103.209755 601.1746ZM107.57321 588.47034L107.22521 586.5961L108.86868 586.28925L109.21668 588.1635L107.57321 588.47034ZM109.70683 599.9615L107.906944 590.26776L109.550415 589.9609L111.3503 599.6546L109.70683 599.9615ZM119.82214 594.846L121.55163 594.7456Q121.42612 596.295 120.49587 597.31903Q119.565636 598.34314 117.87608 598.6586Q115.75647 599.0544 114.26989 597.9809Q112.78331 596.9074 112.34404 594.54156Q111.8905 592.09894 112.89128 590.5133Q113.89207 588.9277 115.90417 588.55194Q117.85483 588.18774 119.3289 589.2795Q120.80298 590.3712 121.25081 592.7831Q121.27648 592.9214 121.315315 593.2161L114.09634 594.5641Q114.485146 596.14453 115.456085 596.83746Q116.427025 597.5304 117.64043 597.30383Q118.53128 597.1375 119.0817 596.5499Q119.632126 595.96234 119.82214 594.846ZM113.93748 593.19495L119.34403 592.1854Q119.01118 590.9919 118.39021 590.47205Q117.43002 589.66583 116.17054 589.901Q115.04929 590.11035 114.41483 591.0156Q113.78037 591.9209 113.93748 593.19495ZM125.762375 596.9635L120.99809 587.82336L122.687645 587.5079L125.26189 592.813L126.23348 594.7933Q126.23567 594.6339 126.354164 592.7044L126.850075 586.73065L128.53963 586.41516L131.02742 591.76825L131.84871 593.53815L132.06902 591.55786L132.6867 585.6408L134.28409 585.3425L133.05815 595.6012L131.35324 595.91956L128.72371 590.4022L128.04987 588.8273L127.467285 596.6452L125.762375 596.9635ZM136.01263 592.0613L137.59225 591.4961Q137.91304 592.4535 138.63066 592.852Q139.34828 593.2505 140.46953 593.04114Q141.60612 592.82886 142.06583 592.2662Q142.52551 591.7035 142.4114 591.089Q142.30873 590.53595 141.77267 590.30225Q141.39484 590.15027 139.9958 590.0618Q138.09781 589.9394 137.33762 589.73956Q136.57744 589.5398 136.10666 589.01575Q135.6359 588.49164 135.50468 587.785Q135.38489 587.1398 135.58171 586.5308Q135.77853 585.9218 136.21693 585.4585Q136.54958 585.1102 137.17296 584.78723Q137.79634 584.4642 138.54895 584.32367Q139.70091 584.1086 140.62238 584.27826Q141.54384 584.44794 142.05498 584.9327Q142.56612 585.41736 142.89372 586.3258L141.33626 586.8392Q141.09183 586.1218 140.48347 585.7983Q139.87514 585.4748 138.92284 585.6526Q137.78624 585.8648 137.37997 586.33014Q136.97371 586.7954 137.06499 587.287Q137.1249 587.6096 137.37306 587.8335Q137.62123 588.0574 138.08267 588.14606Q138.34554 588.1923 139.60634 588.30664Q141.42754 588.4434 142.17291 588.6062Q142.91829 588.76904 143.4155 589.26434Q143.9127 589.7596 144.06958 590.60455Q144.22076 591.41876 143.88011 592.23737Q143.53946 593.056 142.70598 593.61694Q141.87251 594.1779 140.7359 594.39014Q138.84668 594.7429 137.71051 594.1444Q136.57436 593.5459 136.01263 592.0613ZM153.2713 591.82697L148.50702 582.68677L150.19656 582.3713L152.77081 587.67645L153.7424 589.65674Q153.7446 589.4974 153.8631 587.5679L154.359 581.59406L156.04855 581.27856L158.53635 586.63165L159.35764 588.4016L159.57794 586.42126L160.19562 580.5042L161.79301 580.206L160.56708 590.46466L158.86217 590.783L156.23264 585.2657L155.55879 583.69073L154.97621 591.5086L153.2713 591.82697ZM162.6 578.19556L162.25201 576.32135L163.89548 576.01447L164.24348 577.8887L162.6 578.19556ZM164.73364 589.68665L162.93375 579.993L164.57721 579.6861L166.3771 589.37976L164.73364 589.68665ZM172.11298 586.78284L172.61435 588.1993Q171.94884 588.46655 171.3959 588.5698Q170.50505 588.73615 169.96077 588.54376Q169.41649 588.3513 169.13268 587.9354Q168.84885 587.5195 168.57217 586.02936L167.53958 580.46814L166.32619 580.6947L166.08658 579.40424L167.29997 579.1777L166.855 576.7811L168.30055 575.49396L168.92809 578.87366L170.58691 578.56396L170.82652 579.8544L169.1677 580.1641L170.21739 585.8175Q170.3486 586.5242 170.47017 586.7081Q170.59172 586.892 170.81421 586.97766Q171.03671 587.0633 171.40533 586.99445Q171.66644 586.9457 172.11298 586.78284ZM173.88792 587.97736L171.4063 574.612L173.04976 574.3052L173.93973 579.0982Q174.84352 577.5466 176.59451 577.21967Q177.66968 577.01886 178.53914 577.29364Q179.4086 577.5684 179.89395 578.25665Q180.37932 578.9449 180.64174 580.3582L181.78271 586.5032L180.13925 586.81006L178.99828 580.6651Q178.77008 579.4361 178.12837 578.97577Q177.48668 578.5154 176.51903 578.6961Q175.78177 578.83374 175.21423 579.32916Q174.6467 579.8245 174.49146 580.52905Q174.33621 581.2336 174.5473 582.3704L175.53139 587.6705L173.88792 587.97736Z" fill-rule="nonzero" fill="#ffffff"></path><path d="M74.10552 628.433L71.6239 615.0677L73.4056 614.735L74.42393 620.21936L81.36643 618.92303L80.348114 613.43866L82.114456 613.1088L84.596085 626.4741L82.829735 626.80396L81.66023 620.5054L74.71773 621.8017L75.88723 628.1003L74.10552 628.433ZM84.970184 614.5148L84.622185 612.64056L86.265656 612.3337L86.613655 614.20795L84.970184 614.5148ZM87.10381 626.0059L85.303925 616.3122L86.947395 616.0053L88.747284 625.69904L87.10381 626.0059ZM97.4449 624.07495L97.216705 622.84595Q96.56326 624.4621 94.78156 624.7948Q93.62959 625.0099 92.53589 624.5545Q91.442184 624.09906 90.69977 623.0535Q89.95736 622.00793 89.68067 620.5178Q89.412544 619.0737 89.67673 617.8005Q89.94092 616.5272 90.783936 615.71814Q91.62696 614.909 92.825005 614.6853Q93.70049 614.52185 94.45245 614.7629Q95.204414 615.00397 95.74573 615.5228L94.85576 610.72974L96.48387 610.4257L98.9655 623.791L97.4449 624.07495ZM91.35486 620.2052Q91.700005 622.064 92.66217 622.8381Q93.62433 623.6121 94.68414 623.41425Q95.75931 623.2135 96.349335 622.19727Q96.93936 621.1811 96.602776 619.36835Q96.23481 617.3866 95.29426 616.6005Q94.353714 615.8145 93.23247 616.02386Q92.14194 616.22754 91.57012 617.2562Q90.99831 618.28485 91.35486 620.2052ZM107.418564 618.98596L109.14805 618.88556Q109.02253 620.43494 108.09229 621.459Q107.16205 622.4831 105.472496 622.7986Q103.35288 623.19434 101.8663 622.12085Q100.37972 621.04736 99.940445 618.6815Q99.48691 616.2389 100.48769 614.65326Q101.48849 613.0676 103.50058 612.6919Q105.45124 612.3277 106.925316 613.41943Q108.39939 614.51117 108.84722 616.92303Q108.872894 617.06134 108.91173 617.3561L101.69275 618.70404Q102.08156 620.2845 103.0525 620.9774Q104.02344 621.67035 105.23685 621.4438Q106.1277 621.27747 106.678116 620.6899Q107.22854 620.1023 107.418564 618.98596ZM101.53389 617.3349L106.94045 616.3254Q106.60759 615.13184 105.986626 614.612Q105.026436 613.8058 103.76696 614.04095Q102.64571 614.2503 102.01125 615.1556Q101.37679 616.06085 101.53389 617.3349ZM110.04882 616.7146Q109.549644 614.0261 110.81242 612.4393Q111.85687 611.1316 113.65394 610.796Q115.65068 610.4232 117.16173 611.50006Q118.672775 612.57697 119.10064 614.88135Q119.44864 616.75555 119.08626 617.9279Q118.723885 619.1003 117.76621 619.89105Q116.80854 620.6818 115.5337 620.9199Q113.50624 621.29846 112.0043 620.22784Q110.502365 619.1572 110.04882 616.7146ZM111.73837 616.3991Q112.08352 618.25793 113.06872 619.0277Q114.053925 619.7974 115.282684 619.568Q116.511444 619.33856 117.14525 618.25854Q117.77905 617.1786 117.425354 615.2736Q117.09162 613.4762 116.106415 612.7065Q115.12121 611.9367 113.90781 612.1633Q112.67905 612.39276 112.03613 613.4665Q111.39323 614.5402 111.73837 616.3991ZM128.10464 618.3501L127.83937 616.9214Q127.02334 618.77454 125.07268 619.13873Q124.227905 619.2965 123.42164 619.1053Q122.61537 618.91406 122.16315 618.48987Q121.71092 618.0657 121.423256 617.3723Q121.23982 616.89795 121.04586 615.8533L119.93055 609.8466L121.57402 609.53973L122.57238 614.91656Q122.81198 616.20703 122.98686 616.6353Q123.26026 617.25183 123.83558 617.52594Q124.410904 617.8 125.14816 617.6623Q125.88542 617.52466 126.46064 617.02783Q127.03585 616.53094 127.18342 615.8279Q127.33098 615.12476 127.09993 613.88043L126.1358 608.6879L127.779274 608.38104L129.57916 618.07477L128.10464 618.3501ZM130.76389 614.86523L132.3435 614.3001Q132.66429 615.25745 133.38191 615.65594Q134.09953 616.05444 135.22078 615.8451Q136.35738 615.6329 136.81706 615.0702Q137.27676 614.5075 137.16266 613.893Q137.05997 613.33997 136.52393 613.10626Q136.14609 612.9543 134.74706 612.8658Q132.84904 612.74335 132.08887 612.5436Q131.32867 612.34375 130.85791 611.8197Q130.38715 611.29565 130.25594 610.589Q130.13612 609.9437 130.33295 609.3348Q130.52977 608.72577 130.96819 608.26245Q131.30083 607.91425 131.9242 607.5912Q132.54758 607.2682 133.3002 607.1276Q134.45216 606.91254 135.37363 607.0822Q136.29509 607.2519 136.80623 607.73663Q137.31737 608.2214 137.64496 609.12976L136.08751 609.6431Q135.84308 608.9258 135.23473 608.6023Q134.62637 608.27875 133.67409 608.4566Q132.53748 608.6688 132.13123 609.1341Q131.72496 609.59937 131.81624 610.091Q131.87614 610.4136 132.12431 610.63745Q132.37247 610.8613 132.83391 610.95Q133.09679 610.99634 134.35757 611.1106Q136.17879 611.2474 136.92415 611.4102Q137.66953 611.57306 138.16673 612.0683Q138.66394 612.5636 138.82083 613.4085Q138.97202 614.2227 138.63136 615.0414Q138.2907 615.86 137.45723 616.42096Q136.62375 616.9819 135.48715 617.1941Q133.59793 617.5469 132.46176 616.94836Q131.32559 616.34985 130.76389 614.86523ZM146.37907 614.9378L143.89745 601.5725L146.57 601.0734L151.49118 609.9459Q152.16655 611.18677 152.48888 611.81006Q152.58237 611.02966 152.81145 609.52454L154.2805 599.6337L156.66122 599.1892L159.14285 612.5545L157.43794 612.87286L155.3585 601.67365L153.55197 613.59845L151.95459 613.8967L145.97032 603.2359L148.08398 614.61945L146.37907 614.9378ZM167.55852 607.7564L169.288 607.656Q169.16249 609.2054 168.23225 610.22943Q167.302 611.25354 165.61246 611.56903Q163.49284 611.9648 162.00626 610.8913Q160.51968 609.8178 160.0804 607.45197Q159.62686 605.00934 160.62766 603.4237Q161.62845 601.8381 163.64053 601.46234Q165.5912 601.09814 167.06528 602.1899Q168.53935 603.2816 168.98718 605.6935Q169.01285 605.8318 169.05168 606.1265L161.8327 607.4745Q162.22151 609.05493 163.19246 609.74786Q164.16339 610.4408 165.3768 610.21423Q166.26765 610.0479 166.81807 609.4603Q167.3685 608.87274 167.55852 607.7564ZM161.67384 606.10535L167.0804 605.0958Q166.74754 603.9023 166.12659 603.38245Q165.1664 602.57623 163.90692 602.8114Q162.78568 603.02075 162.15121 603.926Q161.51675 604.8313 161.67384 606.10535ZM171.70168 610.2095L169.9018 600.51575L171.37631 600.2405L171.63303 601.62305Q172.41154 599.82465 174.42365 599.4489Q175.29913 599.28546 176.09486 599.4627Q176.8906 599.63995 177.3471 600.0872Q177.8036 600.5345 178.08556 601.1971Q178.26329 601.64075 178.47438 602.7776L179.58112 608.7382L177.93765 609.04504L176.84232 603.1459Q176.6569 602.14734 176.37221 601.6839Q176.08751 601.22046 175.54181 601.0204Q174.99611 600.82025 174.33565 600.9436Q173.2912 601.1386 172.65355 601.94116Q172.01591 602.7437 172.3639 604.6179L173.34515 609.9026L171.70168 610.2095Z" fill-rule="nonzero" fill="#ffffff"></path><path d="M245.59447 558.2256L355.4002 572.8176L362.7388 582.40424L357.12204 624.7138L357.12204 624.7138L247.31627 610.12177L239.97769 600.53516L245.59447 558.2256Z" fill-rule="nonzero" fill="#0000ff"></path><path d="M264.1794 581.9264L265.7586 570.03076L261.3288 569.4421L261.53854 567.86224L272.21033 569.2804L272.0006 570.8603L267.53983 570.26746L265.96063 582.16315L264.1794 581.9264ZM271.8362 582.9439L273.62512 569.4684L275.28244 569.68866L274.6409 574.52124Q275.98145 573.32806 277.74716 573.5627Q278.8314 573.7068 279.5725 574.2388Q280.31366 574.7707 280.5614 575.576Q280.80914 576.3812 280.61996 577.8063L279.79745 584.0019L278.14017 583.7817L278.96265 577.586Q279.12717 576.34686 278.6601 575.7095Q278.19305 575.0721 277.21725 574.94244Q276.4738 574.8436 275.7806 575.1377Q275.08746 575.43176 274.72125 576.053Q274.35507 576.6742 274.2029 577.82043L273.4935 583.1642L271.8362 582.9439ZM289.2301 582.0556L290.90506 582.4989Q290.30496 583.9323 289.103 584.6159Q287.90103 585.29944 286.19724 585.073Q284.05978 584.789 282.97998 583.30566Q281.90015 581.8224 282.21683 579.4371Q282.54376 576.9743 283.98706 575.779Q285.43036 574.58374 287.45938 574.85333Q289.42645 575.11475 290.48874 576.6115Q291.551 578.1082 291.22818 580.54Q291.20966 580.6794 291.15512 580.9716L283.87537 580.0042Q283.75443 581.62744 284.46225 582.58844Q285.17007 583.54944 286.39368 583.71204Q287.29205 583.8314 287.99753 583.44446Q288.70303 583.05743 289.2301 582.0556ZM284.14923 578.65356L289.60132 579.37805Q289.65533 578.14 289.22644 577.4525Q288.564 576.3872 287.2939 576.21844Q286.16324 576.0682 285.27927 576.73096Q284.3953 577.39374 284.14923 578.65356ZM297.73346 581.9719L299.42474 582.0548Q299.415 583.07806 299.76233 583.78625Q300.10965 584.49445 300.97778 585.01965Q301.84592 585.5448 302.99207 585.69714Q304.01434 585.83295 304.83765 585.62714Q305.66095 585.4213 306.1181 584.9461Q306.57523 584.47095 306.65747 583.8514Q306.7418 583.2163 306.43277 582.6945Q306.12375 582.1727 305.31506 581.7342Q304.80173 581.4453 303.00168 580.7569Q301.2016 580.0685 300.5116 579.56696Q299.61917 578.92816 299.24545 578.12195Q298.87173 577.3157 298.99512 576.38635Q299.13083 575.3641 299.8299 574.5506Q300.52896 573.7372 301.69708 573.4274Q302.86517 573.1177 304.2282 573.29877Q305.73062 573.4984 306.81305 574.1309Q307.89548 574.76337 308.38287 575.7818Q308.8703 576.8002 308.75842 577.999L307.0382 577.89655Q307.0674 576.6079 306.35712 575.8436Q305.64685 575.0793 304.09796 574.8735Q302.48712 574.6594 301.6645 575.1569Q300.84186 575.6545 300.73083 576.4909Q300.6342 577.2189 301.09912 577.75354Q301.54855 578.28613 303.65894 579.071Q305.76932 579.85583 306.5254 580.3346Q307.63058 581.03314 308.0859 581.93695Q308.54123 582.84076 308.3973 583.925Q308.25336 585.0092 307.50735 585.87946Q306.76135 586.7497 305.5375 587.123Q304.3137 587.4963 302.87323 587.3049Q301.04553 587.06195 299.87738 586.3629Q298.7092 585.6639 298.14633 584.50146Q297.5835 583.3391 297.73346 581.9719ZM313.70184 586.99426L313.73883 588.4966Q313.02335 588.54333 312.46573 588.46924Q311.56738 588.34985 311.10977 587.99744Q310.6522 587.645 310.51147 587.1614Q310.3708 586.6777 310.57025 585.17523L311.3146 579.5682L310.09097 579.4056L310.2637 578.1045L311.48734 578.2671L311.8081 575.85077L313.5815 575.07764L313.12915 578.4853L314.80194 578.7076L314.6292 580.00867L312.95642 579.7864L312.1997 585.4863Q312.10513 586.19885 312.1636 586.4115Q312.22205 586.6242 312.40695 586.7749Q312.59186 586.92554 312.9636 586.975Q313.2269 587.00995 313.70184 586.99426ZM315.00272 588.6803L316.3002 578.9067L317.7871 579.10425L317.58972 580.59125Q318.30057 579.6296 318.82495 579.3604Q319.3493 579.0912 319.93787 579.16943Q320.7743 579.2806 321.56967 579.9379L320.79303 581.3952Q320.23627 580.9587 319.6167 580.87634Q319.0746 580.8043 318.60547 581.073Q318.13635 581.3416 317.8744 581.89Q317.4784 582.73584 317.33856 583.7891L316.66 588.9005L315.00272 588.6803ZM322.7303 577.917L322.98114 576.0273L324.63846 576.24756L324.3876 578.1372L322.7303 577.917ZM321.19223 589.5028L322.48972 579.7292L324.147 579.9494L322.84952 589.7231L321.19223 589.5028ZM325.28543 590.04675L326.58292 580.27313L328.06985 580.4707L327.8848 581.86475Q329.18286 580.39795 331.21188 580.6676Q332.09476 580.7849 332.79608 581.20123Q333.49738 581.61755 333.79248 582.1848Q334.0876 582.7521 334.14993 583.46967Q334.18118 583.9467 334.02902 585.0929L333.2312 591.10266L331.57388 590.88245L332.3635 584.93463Q332.49716 583.9278 332.37036 583.3987Q332.2436 582.86957 331.78702 582.5094Q331.33044 582.14923 330.66443 582.0607Q329.61118 581.9208 328.75607 582.4849Q327.90094 583.0491 327.6501 584.9387L326.94275 590.267L325.28543 590.04675ZM335.16953 592.1799L336.73196 592.6397Q336.7417 593.3976 337.1611 593.8001Q337.70554 594.3296 338.7743 594.4716Q339.93594 594.626 340.61615 594.2514Q341.29636 593.8768 341.63766 593.08673Q341.82944 592.59204 342.02988 590.9636Q340.77496 592.10516 339.16412 591.8911Q337.15057 591.62354 336.23642 590.0204Q335.32227 588.41724 335.5916 586.3882Q335.7767 584.99414 336.44513 583.87714Q337.11356 582.76013 338.1592 582.245Q339.20483 581.7298 340.49042 581.90063Q342.22516 582.13116 343.1553 583.67334L343.31158 582.4962L344.84497 582.69995L343.7243 591.14154Q343.41998 593.4339 342.82886 594.32477Q342.23773 595.2156 341.15796 595.63165Q340.0782 596.0477 338.60675 595.8522Q336.85654 595.6196 335.88492 594.6866Q334.9133 593.7536 335.16953 592.1799ZM337.31186 586.49066Q337.0548 588.4268 337.7043 589.41156Q338.3538 590.3963 339.49997 590.54865Q340.63065 590.6989 341.5223 589.91895Q342.41394 589.139 342.66275 587.2648Q342.90128 585.468 342.2239 584.45593Q341.5465 583.44385 340.43134 583.2956Q339.3316 583.1495 338.43893 583.9372Q337.54626 584.7249 337.31186 586.49066Z" fill-rule="nonzero" fill="#ffffff"></path><path d="M275.23547 605.03735L276.81467 593.1417L272.38486 592.55304L272.59457 590.97314L283.2664 592.39136L283.05667 593.97125L278.5959 593.3784L277.01666 605.27405L275.23547 605.03735ZM282.89224 606.0549L284.68118 592.57935L286.3385 592.7996L285.69693 597.6322Q287.0375 596.439 288.80322 596.67365Q289.88745 596.81775 290.62857 597.3497Q291.3697 597.88165 291.61743 598.68695Q291.86517 599.4922 291.67603 600.9172L290.85352 607.11285L289.1962 606.8926L290.0187 600.69696Q290.1832 599.4578 289.71616 598.82043Q289.24908 598.18304 288.2733 598.0534Q287.52985 597.9546 286.83667 598.24866Q286.1435 598.5427 285.7773 599.16394Q285.41113 599.78516 285.25897 600.9314L284.54956 606.27515L282.89224 606.0549ZM300.28613 605.16656L301.96112 605.60986Q301.36102 607.0433 300.15906 607.72687Q298.95706 608.4104 297.2533 608.18396Q295.11584 607.89996 294.03604 606.4166Q292.9562 604.93335 293.2729 602.54803Q293.59982 600.08527 295.04312 598.88995Q296.4864 597.6947 298.51544 597.9643Q300.4825 598.2257 301.5448 599.7225Q302.60706 601.2192 302.28424 603.65094Q302.26572 603.79034 302.21115 604.0826L294.93143 603.1152Q294.8105 604.7384 295.5183 605.6994Q296.22614 606.6604 297.44974 606.823Q298.34808 606.9424 299.0536 606.55536Q299.7591 606.1684 300.28613 605.16656ZM295.2053 601.7645L300.65738 602.489Q300.7114 601.251 300.2825 600.5635Q299.62006 599.49817 298.34998 599.3294Q297.2193 599.17914 296.33533 599.8419Q295.45135 600.5047 295.2053 601.7645ZM303.491 603.8271Q303.85086 601.1165 305.54355 600.00165Q306.94208 599.0841 308.75427 599.32495Q310.76782 599.5925 311.86984 601.0867Q312.97186 602.5808 312.66342 604.9042Q312.41257 606.7938 311.7043 607.79517Q310.99606 608.7966 309.84042 609.2498Q308.68478 609.7031 307.3992 609.5323Q305.35468 609.26056 304.25937 607.7752Q303.16406 606.28986 303.491 603.8271ZM305.1948 604.0535Q304.94598 605.9277 305.64352 606.9661Q306.34103 608.0046 307.58014 608.16925Q308.81924 608.33386 309.75684 607.5049Q310.6944 606.67584 310.94937 604.7552Q311.18994 602.94293 310.4924 601.90454Q309.7949 600.8661 308.57126 600.7035Q307.33215 600.5388 306.38788 601.3591Q305.4436 602.1793 305.1948 604.0535ZM313.73267 610.15326L315.03015 600.37964L316.5171 600.5772L316.31967 602.06415Q317.03052 601.10254 317.5549 600.8334Q318.07925 600.56415 318.66785 600.64233Q319.50424 600.7535 320.29965 601.4109L319.52298 602.86816Q318.96622 602.43164 318.34665 602.3493Q317.80453 602.2773 317.33542 602.5459Q316.8663 602.8146 316.60434 603.363Q316.20834 604.2088 316.0685 605.2621L315.38995 610.3735L313.73267 610.15326ZM319.32956 614.7273L319.3648 613.1557Q319.88843 613.3672 320.29114 613.42065Q320.83325 613.49274 321.19092 613.3511Q321.5486 613.2095 321.80862 612.913Q321.99643 612.6858 322.46878 611.73975Q322.53375 611.60657 322.67712 611.3576L320.27484 601.0766L322.05606 601.3133L323.33252 607.25195Q323.59335 608.3742 323.74478 609.60803Q324.17575 608.4989 324.72238 607.46814L327.5546 602.044L329.2119 602.2642L324.17447 611.71423Q323.37204 613.2469 322.9511 613.80566Q322.40842 614.569 321.78497 614.8723Q321.1615 615.1756 320.37158 615.0707Q319.89142 615.00684 319.32956 614.7273Z" fill-rule="nonzero" fill="#ffffff"></path><path d="M397.16144 561.0445L539.43555 547.1902L553.3084 558.6143L559.39764 621.8949L559.39764 621.8949L417.12354 635.7492L403.25064 624.3251L397.16144 561.0445Z" fill-rule="nonzero" fill="#ff9900"></path><path d="M429.97528 584.6112L428.31104 567.3161L431.96564 566.9602L432.09732 568.32886L430.0912 568.52423L431.49054 583.06647L433.49667 582.8711L433.62988 584.2553L429.97528 584.6112ZM437.3069 580.09814L432.41245 566.9167L434.24753 566.738L437.15338 575.4034Q437.63022 576.7699 437.99518 578.11584Q438.30035 575.904 438.36072 575.55273L440.06375 566.17163L442.2254 565.9611L444.82785 572.61523Q445.8042 575.0948 446.33075 577.30414Q446.4724 576.00305 446.73215 574.298L448.01056 565.39777L449.8145 565.2221L447.39978 579.1153L445.67355 579.2834L441.8354 569.2488Q441.3535 567.9927 441.26285 567.70325Q441.13492 568.65765 441.01117 569.32904L439.1264 579.92096L437.3069 580.09814ZM455.397 582.1357L451.72687 582.4931L451.59366 581.1089L453.5998 580.9135L452.20047 566.3713L450.19434 566.56665L450.06262 565.19794L453.73276 564.8406L455.397 582.1357ZM457.65884 578.11633L456.35678 564.5851L462.35965 564.0005Q464.1636 563.8248 465.1389 564.09094Q466.11417 564.35706 466.76306 565.22797Q467.41196 566.0989 467.5197 567.2187Q467.6589 568.6651 466.82864 569.74286Q465.99835 570.82056 464.06433 571.2758Q464.81262 571.5483 465.2173 571.83856Q466.0652 572.49384 466.8683 573.4989L469.5868 576.9548L467.33182 577.1744L465.27252 574.5334Q464.36267 573.3975 463.79437 572.79346Q463.2261 572.18945 462.7971 571.9722Q462.36804 571.75494 461.95474 571.701Q461.63623 571.6535 460.9364 571.7217L458.86807 571.9231L459.44724 577.94214L457.65884 578.11633ZM458.71988 570.3833L462.5611 570.0093Q463.78967 569.88965 464.457 569.5656Q465.12436 569.2416 465.43594 568.6461Q465.74753 568.0506 465.68466 567.3974Q465.59186 566.43304 464.83295 565.88684Q464.074 565.34064 462.56552 565.48755L458.28888 565.904L458.71988 570.3833ZM470.81952 576.8348L469.5175 563.3035L471.1815 563.1415L471.64844 567.9941Q472.68457 566.52734 474.45743 566.35474Q475.54605 566.2487 476.3881 566.59845Q477.23016 566.9482 477.65338 567.6762Q478.07663 568.40424 478.21432 569.8351L478.81296 576.0564L477.14896 576.2184L476.55032 569.99713Q476.4306 568.75287 475.83167 568.2382Q475.23273 567.7235 474.253 567.8189Q473.50653 567.8916 472.8978 568.3355Q472.2891 568.7794 472.07278 569.46765Q471.85645 570.15594 471.9672 571.3069L472.48352 576.6727L470.81952 576.8348ZM487.56082 572.01764L489.29242 572.06885Q489.03177 573.6013 488.01544 574.54016Q486.99915 575.479 485.28848 575.64557Q483.1424 575.85455 481.7555 574.6552Q480.36862 573.4559 480.13815 571.06067Q479.90018 568.5877 481.03592 567.09564Q482.17166 565.6035 484.2089 565.40515Q486.18393 565.2128 487.55676 566.42926Q488.9296 567.6457 489.16455 570.0875Q489.17804 570.2275 489.19092 570.52454L481.88174 571.23627Q482.13068 572.8447 483.03723 573.6199Q483.94376 574.395 485.17233 574.2754Q486.0743 574.18756 486.67404 573.6503Q487.2738 573.11316 487.56082 572.01764ZM481.84335 569.8585L487.31744 569.32544Q487.09036 568.10736 486.5173 567.5352Q485.63138 566.64813 484.35617 566.7723Q483.22092 566.8829 482.50964 567.7292Q481.79837 568.57556 481.84335 569.8585ZM494.96863 572.9761L495.3441 574.4309Q494.65775 574.63904 494.0979 574.69354Q493.1959 574.7814 492.67056 574.5421Q492.14523 574.30286 491.89893 573.8637Q491.6526 573.42456 491.50742 571.9159L490.96564 566.2857L489.7371 566.40533L489.61136 565.0988L490.83994 564.9792L490.60648 562.5529L492.15915 561.397L492.4884 564.81866L494.16794 564.65515L494.29367 565.9616L492.6141 566.1252L493.16486 571.8487Q493.2337 572.56415 493.33868 572.75806Q493.4437 572.9519 493.65784 573.05664Q493.87198 573.1614 494.2452 573.125Q494.50958 573.0993 494.96863 572.9761ZM495.5387 569.4825Q495.27676 566.7607 496.6736 565.2903Q497.82852 564.0789 499.64804 563.90173Q501.6697 563.70483 503.08066 564.9097Q504.4916 566.11456 504.71613 568.4476Q504.8987 570.34503 504.4351 571.48126Q503.97147 572.6175 502.94827 573.32153Q501.92505 574.0256 500.6343 574.15125Q498.5815 574.35114 497.17908 573.1533Q495.77664 571.95544 495.5387 569.4825ZM497.24933 569.3159Q497.43042 571.1979 498.34445 572.0508Q499.25848 572.90375 500.5026 572.7826Q501.7467 572.66144 502.47263 571.6409Q503.19852 570.6205 503.01294 568.6919Q502.83783 566.8722 501.9238 566.0192Q501.0098 565.1663 499.78122 565.28595Q498.5371 565.4071 497.80267 566.42053Q497.06824 567.434 497.24933 569.3159ZM506.94348 573.3171L505.9991 563.50305L507.49207 563.35767L507.63574 564.85077Q508.11087 563.7527 508.5608 563.37134Q509.0107 562.99 509.60165 562.93243Q510.44144 562.8507 511.36472 563.31024L510.93747 564.906Q510.29654 564.60736 509.67447 564.66797Q509.1302 564.72095 508.73395 565.08923Q508.3377 565.45746 508.20645 566.0511Q508.01184 566.9649 508.11362 568.0225L508.60748 573.155L506.94348 573.3171ZM512.0386 561.0782L511.85596 559.18066L513.51996 559.0186L513.7026 560.91614L512.0386 561.0782ZM513.158 572.7119L512.2137 562.8979L513.8777 562.73584L514.822 572.5499L513.158 572.7119ZM523.3293 568.09503L524.9831 568.1538Q524.8804 569.85925 523.8683 570.9233Q522.85614 571.98737 521.23883 572.14484Q519.23267 572.3402 517.88544 571.14484Q516.53815 569.94946 516.3017 567.49207Q516.14905 565.90564 516.55554 564.6651Q516.962 563.42456 517.9852 562.7205Q519.0084 562.0164 520.26807 561.8938Q521.8699 561.7378 522.95856 562.4481Q524.04724 563.15845 524.4864 564.6228L522.89294 565.0292Q522.5639 564.05646 521.92505 563.6163Q521.2862 563.17615 520.462 563.2564Q519.20233 563.3791 518.5038 564.3576Q517.80524 565.3362 517.9923 567.28033Q518.1824 569.2556 519.03046 570.0757Q519.87854 570.8958 521.09155 570.77765Q522.0713 570.68225 522.6668 570.0199Q523.2624 569.3575 523.3293 568.09503Z" fill-rule="nonzero" fill="#ffffff"></path><path d="M432.20886 600.9247Q431.35208 601.8087 430.52744 602.2109Q429.7028 602.613 428.72305 602.7084Q427.12125 602.8644 426.1748 602.16376Q425.22833 601.46313 425.1101 600.23444Q425.03976 599.5034 425.30948 598.8806Q425.5792 598.25775 426.07352 597.8486Q426.56784 597.43933 427.2186 597.18756Q427.70276 596.99915 428.67203 596.79486Q430.66977 596.3492 431.58698 595.9302Q431.55405 595.588 431.54507 595.4947Q431.44778 594.4837 430.94086 594.1092Q430.24936 593.6114 428.9897 593.7341Q427.82333 593.84766 427.3024 594.3065Q426.78146 594.76544 426.61884 595.8488L424.9635 595.7745Q425.0965 594.7097 425.54056 594.0228Q425.98462 593.33594 426.90735 592.8928Q427.8301 592.44977 429.10532 592.32556Q430.365 592.20294 431.171 592.4227Q431.977 592.6425 432.39365 593.0572Q432.81027 593.4719 433.01608 594.14264Q433.1498 594.55347 433.25607 595.6577L433.47006 597.88184Q433.69308 600.1993 433.85327 600.8038Q434.01346 601.40826 434.39392 601.9364L432.65216 602.106Q432.3384 601.61847 432.20886 600.9247ZM431.7127 597.23663Q430.84512 597.6822 429.05106 598.1238Q428.03815 598.3637 427.6362 598.59125Q427.23428 598.8187 427.03543 599.19916Q426.83658 599.57965 426.87848 600.01514Q426.94284 600.6839 427.4909 601.07794Q428.03897 601.472 429.00317 601.3781Q429.96738 601.28424 430.67267 600.7838Q431.378 600.2834 431.66684 599.53314Q431.87582 598.93195 431.77106 597.8432L431.7127 597.23663ZM436.24527 601.7561L435.3009 591.9421L436.79385 591.7967L436.92853 593.1965Q437.86148 591.47296 439.89874 591.27454Q440.78516 591.18823 441.56232 591.4344Q442.33945 591.68054 442.75507 592.16595Q443.17065 592.6514 443.39352 593.3362Q443.5317 593.7937 443.64246 594.94464L444.22314 600.97925L442.55914 601.1413L441.98447 595.1689Q441.88718 594.1579 441.64413 593.6714Q441.4011 593.1848 440.87503 592.93774Q440.34894 592.69073 439.68024 592.7558Q438.62274 592.8588 437.9173 593.60254Q437.21185 594.3463 437.39444 596.2438L437.90927 601.59406L436.24527 601.7561ZM452.93268 600.1311L452.81296 598.8869Q452.02054 600.43976 450.21658 600.6154Q449.05023 600.729 448.00058 600.1797Q446.95096 599.6304 446.30295 598.5239Q445.6549 597.4175 445.50974 595.9088Q445.36908 594.4468 445.7437 593.20154Q446.11832 591.95624 447.02893 591.2239Q447.93954 590.4916 449.15256 590.3734Q450.03897 590.2871 450.76694 590.593Q451.4949 590.89886 451.9887 591.4631L451.52176 586.6105L453.17023 586.44995L454.47226 599.9812L452.93268 600.1311ZM447.20486 595.7437Q447.38596 597.6257 448.27664 598.4809Q449.16733 599.33606 450.2404 599.23157Q451.32898 599.12555 452.0057 598.16486Q452.6824 597.2041 452.50583 595.36884Q452.31274 593.3625 451.44464 592.49725Q450.5765 591.63196 449.44125 591.74255Q448.3371 591.85004 447.67746 592.8248Q447.0178 593.7996 447.20486 595.7437ZM465.55328 597.3951L465.9287 598.8499Q465.24237 599.05804 464.68253 599.11255Q463.78055 599.2004 463.25522 598.9611Q462.7299 598.72186 462.48355 598.2827Q462.23724 597.84357 462.09207 596.3349L461.5503 590.70465L460.32172 590.8243L460.196 589.5178L461.4246 589.3982L461.1911 586.9719L462.74377 585.816L463.07303 589.2377L464.7526 589.07416L464.8783 590.3806L463.19873 590.5441L463.7495 596.2677Q463.81833 596.98315 463.92334 597.177Q464.02832 597.3709 464.24246 597.47565Q464.4566 597.5804 464.82983 597.544Q465.0942 597.51825 465.55328 597.3951ZM467.21683 598.7402L465.91476 585.2089L467.57877 585.0469L468.04572 589.8995Q469.08185 588.4328 470.85474 588.26013Q471.94333 588.1541 472.78537 588.50385Q473.62744 588.8536 474.0507 589.5816Q474.4739 590.30963 474.6116 591.74054L475.21027 597.9618L473.54626 598.12384L472.9476 591.9026Q472.82788 590.6583 472.22894 590.1436Q471.63004 589.62897 470.65027 589.72437Q469.9038 589.79706 469.2951 590.2409Q468.68637 590.6848 468.47006 591.3731Q468.25372 592.06134 468.36447 593.2123L468.88083 598.5781L467.21683 598.7402ZM483.9581 593.9231L485.6897 593.97424Q485.42905 595.5067 484.41275 596.44556Q483.39642 597.38446 481.68576 597.551Q479.53967 597.76 478.1528 596.56067Q476.7659 595.36127 476.53543 592.96606Q476.2975 590.49316 477.43323 589.00104Q478.56894 587.509 480.6062 587.31055Q482.58124 587.1182 483.95404 588.33466Q485.32687 589.5511 485.56183 591.9929Q485.57532 592.13293 485.5882 592.42993L478.27902 593.14166Q478.52798 594.7501 479.4345 595.52527Q480.34106 596.3005 481.5696 596.18085Q482.4716 596.09296 483.07135 595.5558Q483.67108 595.01855 483.9581 593.9231ZM478.24063 591.7639L483.71472 591.23083Q483.48764 590.01276 482.91458 589.4406Q482.02866 588.5535 480.75345 588.67773Q479.6182 588.78827 478.90692 589.63464Q478.19565 590.481 478.24063 591.7639ZM493.18497 596.2115L491.8829 582.68024L494.58887 582.4167L498.7144 591.6855Q499.27853 592.98065 499.54504 593.62976Q499.70648 592.86053 500.06644 591.38116L502.3957 581.6565L504.80615 581.42175L506.10822 594.953L504.38202 595.12115L503.291 583.78284L500.4475 595.5043L498.83014 595.66174L493.8022 584.5185L494.9112 596.0434L493.18497 596.2115ZM514.78754 592.88336Q513.9308 593.7674 513.10614 594.16956Q512.2815 594.57166 511.30176 594.66705Q509.69995 594.82306 508.7535 594.12244Q507.80704 593.4218 507.6888 592.1931Q507.61847 591.4621 507.88818 590.8393Q508.1579 590.21643 508.65222 589.80725Q509.14655 589.398 509.7973 589.1463Q510.28146 588.9578 511.25073 588.75354Q513.2485 588.30786 514.1657 587.88885Q514.13275 587.5467 514.1238 587.45337Q514.0265 586.4424 513.51953 586.06793Q512.82806 585.57007 511.5684 585.69275Q510.40204 585.80634 509.8811 586.2652Q509.36017 586.7241 509.19754 587.8075L507.5422 587.7332Q507.6752 586.6684 508.11926 585.9815Q508.56332 585.2946 509.48605 584.85156Q510.4088 584.40845 511.68402 584.2843Q512.94366 584.1616 513.7497 584.3814Q514.5557 584.6012 514.97235 585.01587Q515.389 585.4306 515.5948 586.1013Q515.7285 586.51215 515.8348 587.61646L516.04877 589.8405Q516.2718 592.15796 516.43195 592.76245Q516.59216 593.36694 516.97266 593.8951L515.2309 594.0647Q514.9171 593.5772 514.78754 592.88336ZM514.2914 589.1953Q513.4238 589.64087 511.62976 590.08246Q510.61682 590.3224 510.2149 590.5499Q509.813 590.77747 509.61414 591.1579Q509.41528 591.5383 509.45718 591.9738Q509.52155 592.6426 510.0696 593.0366Q510.61768 593.43066 511.58188 593.3368Q512.5461 593.2429 513.2514 592.7425Q513.95667 592.2421 514.24554 591.4918Q514.4545 590.8906 514.3498 589.8019L514.2914 589.1953ZM522.31934 591.8673L522.69476 593.32214Q522.0084 593.5303 521.4486 593.58484Q520.5466 593.67267 520.02124 593.43335Q519.4959 593.1941 519.24963 592.75494Q519.0033 592.31586 518.8581 590.8072L518.31635 585.17694L517.08777 585.2966L516.9621 583.9901L518.1906 583.8705L517.95715 581.44415L519.5098 580.28827L519.8391 583.70996L521.5186 583.5464L521.64435 584.85284L519.9648 585.0164L520.51556 590.74Q520.5844 591.45544 520.6894 591.6493Q520.7944 591.84314 521.00854 591.9479Q521.22266 592.0526 521.5959 592.0163Q521.8603 591.99054 522.31934 591.8673ZM523.98285 593.21246L522.68085 579.6812L524.34485 579.51917L524.81177 584.37177Q525.8479 582.905 527.6208 582.7324Q528.7094 582.6264 529.55145 582.97614Q530.3935 583.32587 530.8167 584.0539Q531.24 584.7819 531.3777 586.21277L531.9763 592.4341L530.3123 592.59607L529.7137 586.3748Q529.59393 585.13055 528.995 584.6159Q528.39606 584.1012 527.4163 584.1966Q526.66986 584.2693 526.06116 584.7132Q525.45245 585.1571 525.2361 585.84534Q525.0198 586.5336 525.13055 587.6846L525.64685 593.0504L523.98285 593.21246Z" fill-rule="nonzero" fill="#ffffff"></path><path d="M435.88525 623.34576L434.5832 609.8145L437.28915 609.551L441.41464 618.8198Q441.9788 620.115 442.24533 620.7641Q442.40677 619.9948 442.76672 618.51544L445.09598 608.79083L447.50644 608.5561L448.8085 622.08734L447.08228 622.25543L445.99124 610.9172L443.14777 622.63855L441.53043 622.7961L436.50247 611.6528L437.61145 623.1777L435.88525 623.34576ZM457.6118 618.0432L459.34338 618.09436Q459.08273 619.62683 458.06644 620.56573Q457.0501 621.5046 455.33945 621.67114Q453.19336 621.8801 451.8065 620.6808Q450.4196 619.48145 450.18912 617.08624Q449.95117 614.6133 451.0869 613.12115Q452.22266 611.6291 454.2599 611.4307Q456.23492 611.2384 457.60773 612.4548Q458.98056 613.6712 459.2155 616.1131Q459.229 616.25305 459.24188 616.55005L451.9327 617.26184Q452.18167 618.87024 453.0882 619.64545Q453.99475 620.4206 455.2233 620.30096Q456.1253 620.21313 456.72504 619.6759Q457.32477 619.1387 457.6118 618.0432ZM451.89432 615.88403L457.3684 615.351Q457.14133 614.1329 456.56827 613.5607Q455.68234 612.6737 454.40714 612.79785Q453.27188 612.9084 452.5606 613.75476Q451.84933 614.60114 451.89432 615.88403ZM461.49313 620.8521L460.1911 607.32086L461.8551 607.1588L463.15714 620.6901L461.49313 620.8521ZM464.55606 615.6087Q464.29416 612.8869 465.69098 611.4165Q466.8459 610.2051 468.6654 610.0279Q470.6871 609.83105 472.09805 611.0359Q473.509 612.2408 473.7335 614.5737Q473.91608 616.47125 473.45245 617.6075Q472.98886 618.74365 471.96564 619.44775Q470.94244 620.1518 469.65167 620.27747Q467.59888 620.47736 466.19644 619.27954Q464.79404 618.08167 464.55606 615.6087ZM466.26672 615.44214Q466.4478 617.3241 467.36185 618.177Q468.27585 619.0299 469.51996 618.9088Q470.7641 618.78766 471.49 617.76715Q472.2159 616.7467 472.0303 614.8181Q471.85522 612.99835 470.9412 612.14545Q470.02716 611.29254 468.7986 611.4122Q467.55447 611.5333 466.82007 612.54675Q466.08563 613.5602 466.26672 615.44214ZM482.33698 618.8224L482.21722 617.5782Q481.42484 619.13104 479.62085 619.3067Q478.4545 619.4203 477.40488 618.871Q476.35526 618.32166 475.7072 617.2152Q475.0592 616.10876 474.91403 614.6001Q474.77335 613.13806 475.14798 611.89276Q475.5226 610.6475 476.43323 609.91516Q477.3438 609.18286 478.55682 609.0647Q479.44327 608.9784 480.17123 609.2843Q480.89917 609.59015 481.393 610.15436L480.92606 605.30176L482.5745 605.14124L483.87656 618.6725L482.33698 618.8224ZM476.60913 614.435Q476.79022 616.31696 477.68094 617.1722Q478.57162 618.02734 479.64468 617.92285Q480.73328 617.81683 481.41 616.85614Q482.0867 615.8954 481.9101 614.0601Q481.71704 612.0538 480.8489 611.18854Q479.9808 610.32324 478.84555 610.43384Q477.7414 610.5413 477.08173 611.5161Q476.42206 612.49084 476.60913 614.435ZM486.28775 618.4377L485.34338 608.62366L486.8363 608.4783L486.97998 609.9714Q487.4551 608.8733 487.90503 608.49194Q488.35495 608.1106 488.94592 608.05304Q489.7857 607.97125 490.70895 608.43085L490.2817 610.0266Q489.64078 609.72797 489.01874 609.7886Q488.47443 609.84155 488.0782 610.20984Q487.68195 610.57806 487.55072 611.1717Q487.3561 612.0855 487.45786 613.1431L487.95175 618.27563L486.28775 618.4377ZM498.7772 615.997Q497.9204 616.88104 497.09576 617.2832Q496.27112 617.6853 495.29138 617.7807Q493.68958 617.9367 492.74313 617.2361Q491.79666 616.53546 491.67844 615.30676Q491.6081 614.57574 491.8778 613.95294Q492.14752 613.3301 492.64185 612.9209Q493.13617 612.51166 493.78693 612.25995Q494.2711 612.0715 495.24036 611.8672Q497.2381 611.4215 498.1553 611.0025Q498.12238 610.66034 498.1134 610.567Q498.0161 609.556 497.5092 609.1816Q496.8177 608.6837 495.558 608.8064Q494.39166 608.92 493.87073 609.37885Q493.3498 609.83777 493.18716 610.92114L491.53183 610.84686Q491.66483 609.78204 492.1089 609.09515Q492.55295 608.40826 493.47568 607.9652Q494.39844 607.5221 495.67365 607.39795Q496.93332 607.27527 497.73932 607.49506Q498.54532 607.71484 498.96198 608.1295Q499.3786 608.54425 499.5844 609.21497Q499.71814 609.6258 499.8244 610.7301L500.0384 612.95416Q500.2614 615.2716 500.4216 615.8761Q500.5818 616.4806 500.96225 617.0087L499.2205 617.17834Q498.90674 616.69086 498.7772 615.997ZM498.28104 612.30896Q497.41345 612.7545 495.6194 613.1961Q494.60648 613.43604 494.20453 613.6636Q493.8026 613.8911 493.60376 614.27155Q493.4049 614.652 493.4468 615.08746Q493.51117 615.7562 494.05923 616.15027Q494.6073 616.5443 495.5715 616.45044Q496.5357 616.35657 497.241 615.85614Q497.94632 615.3558 498.23517 614.60547Q498.44415 614.0043 498.3394 612.9155L498.28104 612.30896ZM502.8136 616.8284L501.86923 607.0144L503.36218 606.869L503.49536 608.25323Q503.8775 607.4939 504.60464 606.97565Q505.3318 606.45746 506.31155 606.36206Q507.40015 606.25604 508.14337 606.6389Q508.88657 607.02185 509.24582 607.8189Q510.24606 605.9789 512.11224 605.7972Q513.57404 605.65485 514.43726 606.38715Q515.3004 607.1194 515.46204 608.79913L516.1101 615.5337L514.44604 615.69574L513.8519 609.5211Q513.7561 608.5257 513.558 608.0976Q513.3598 607.66943 512.9067 607.4467Q512.4536 607.22394 511.87817 607.27997Q510.85178 607.37994 510.23337 608.13086Q509.61496 608.88184 509.76163 610.40607L510.3094 616.0985L508.6454 616.26056L508.03177 609.8838Q507.9255 608.7795 507.46805 608.2667Q507.0106 607.75397 506.07748 607.84485Q505.3777 607.91296 504.81412 608.3368Q504.25055 608.76056 504.05502 609.5018Q503.8595 610.243 503.98822 611.5805L504.4776 616.66644L502.8136 616.8284ZM524.5717 613.48517Q523.7149 614.36926 522.89026 614.77136Q522.0656 615.1735 521.0859 615.2689Q519.4841 615.4249 518.53766 614.72424Q517.5912 614.0236 517.47296 612.7949Q517.4026 612.06396 517.6723 611.4411Q517.942 610.8183 518.43634 610.40906Q518.93066 609.9999 519.5814 609.7481Q520.0656 609.5597 521.03485 609.3554Q523.0326 608.90967 523.9498 608.4907Q523.9169 608.1485 523.9079 608.05524Q523.8106 607.04425 523.3037 606.66974Q522.6122 606.17194 521.35254 606.29456Q520.18616 606.40814 519.6652 606.86707Q519.1443 607.326 518.9817 608.4093L517.32635 608.335Q517.45935 607.27026 517.9034 606.5834Q518.3475 605.8965 519.2702 605.45337Q520.19293 605.0103 521.46814 604.8861Q522.72784 604.7635 523.5338 604.9833Q524.33984 605.20306 524.7565 605.61774Q525.1731 606.0324 525.3789 606.7031Q525.51263 607.114 525.6189 608.21826L525.8329 610.4424Q526.0559 612.7598 526.2161 613.3643Q526.3763 613.9688 526.7568 614.49695L525.015 614.6665Q524.70123 614.179 524.5717 613.48517ZM524.07556 609.7972Q523.20795 610.24274 521.4139 610.6843Q520.401 610.92426 519.999 611.15173Q519.5971 611.3793 519.39825 611.7597Q519.1994 612.14014 519.24133 612.5756Q519.30566 613.24445 519.85376 613.6385Q520.4018 614.03253 521.366 613.93866Q522.3302 613.8447 523.0355 613.34436Q523.74084 612.84393 524.02966 612.0937Q524.23865 611.49243 524.1339 610.40375L524.07556 609.7972Z" fill-rule="nonzero" fill="#ffffff"></path></svg>

